<svg width="40" height="35" viewBox="0 0 40 35" fill="none" xmlns="http://www.w3.org/2000/svg">
<path d="M30.8702 7.1897H1.19826C0.57059 7.1897 0.0570374 7.70325 0.0570374 8.33092V32.8673C0.0570374 33.495 0.57059 34.0085 1.19826 34.0085H30.8702C31.4979 34.0085 32.0114 33.495 32.0114 32.8673V8.33092C32.0114 7.64619 31.4979 7.1897 30.8702 7.1897ZM29.729 31.7261H2.33949V9.47215H29.729V31.7261Z" fill="#32394D"/>
<path d="M31.9544 1.99715C31.9544 1.94009 31.9544 1.94009 31.8973 1.88303C31.8973 1.82596 31.8402 1.82596 31.8402 1.7689C31.8402 1.71184 31.7832 1.71184 31.7832 1.65478C31.7261 1.59772 31.6691 1.54066 31.612 1.4836L30.4708 0.342368C30.0143 -0.114123 29.3295 -0.114123 28.8731 0.342368C28.6448 0.570614 28.5307 0.855921 28.5307 1.14123H3.48074C3.48074 0.855921 3.36662 0.570614 3.13838 0.342368C2.68188 -0.114123 1.99715 -0.114123 1.54066 0.342368L0.39943 1.4836C0.342369 1.54066 0.285307 1.59772 0.228245 1.65478C0.228245 1.65478 0.171185 1.71184 0.171185 1.7689C0.171185 1.82596 0.114123 1.82596 0.114123 1.88303C0.114123 1.94009 0.114123 1.94009 0.0570616 1.99715C0.0570616 2.05421 0.0570614 2.05421 0 2.11127C0 2.16833 0 2.28245 0 2.33952C0 2.39658 0 2.5107 0 2.56776C0 2.62482 2.16822e-07 2.62482 0.0570616 2.68188C0.0570616 2.73895 0.0570618 2.73895 0.114123 2.79601C0.114123 2.85307 0.171185 2.85307 0.171185 2.91013C0.171185 2.96719 0.228245 2.96719 0.228245 3.02425C0.285307 3.08131 0.342369 3.13838 0.39943 3.19544L1.54066 4.33666C1.7689 4.56491 2.05421 4.67903 2.33952 4.67903C2.62482 4.67903 2.91013 4.56491 3.13838 4.33666C3.36662 4.10842 3.48074 3.82311 3.48074 3.53781H28.5878C28.5878 3.82311 28.7019 4.10842 28.9301 4.33666C29.1584 4.56491 29.4437 4.67903 29.729 4.67903C30.0143 4.67903 30.2996 4.56491 30.5278 4.33666L31.6691 3.19544C31.7261 3.13838 31.7832 3.08131 31.8402 3.02425C31.8402 3.02425 31.8973 2.96719 31.8973 2.91013C31.8973 2.85307 31.9544 2.85307 31.9544 2.79601C31.9544 2.73895 31.9544 2.73895 32.0114 2.68188C32.0114 2.62482 32.0114 2.62482 32.0685 2.56776C32.0685 2.5107 32.0685 2.39658 32.0685 2.33952C32.0685 2.28245 32.0685 2.16833 32.0685 2.11127C31.9544 2.05421 31.9544 1.99715 31.9544 1.99715Z" fill="#32394D"/>
<path d="M38.8588 30.2997V10.8988C39.1441 10.8988 39.4294 10.7847 39.6576 10.5564C40.1141 10.0999 40.1141 9.41519 39.6576 8.9587L38.5164 7.81747C38.4593 7.76041 38.4023 7.70335 38.3452 7.64628L38.2882 7.58922C38.2311 7.58922 38.2311 7.53216 38.174 7.53216C38.117 7.53216 38.117 7.53216 38.0599 7.4751C38.0029 7.4751 38.0029 7.4751 37.9458 7.41804C37.7746 7.36098 37.6605 7.36098 37.4893 7.41804C37.4322 7.41804 37.4322 7.41804 37.3752 7.4751C37.3181 7.4751 37.3181 7.4751 37.2611 7.53216C37.204 7.53216 37.204 7.58922 37.1469 7.58922C37.1469 7.58922 37.0899 7.58922 37.0899 7.64628C37.0328 7.70335 36.9757 7.76041 36.9187 7.81747L35.7775 8.9587C35.5492 9.18694 35.4351 9.47225 35.4351 9.75756C35.4351 10.0429 35.5492 10.3282 35.7775 10.5564C36.0057 10.7847 36.291 10.8988 36.5763 10.8988V30.2997C36.291 30.2997 36.0057 30.4138 35.7775 30.642C35.5492 30.8703 35.4351 31.1556 35.4351 31.4409C35.4351 31.7262 35.5492 32.0115 35.7775 32.2397L36.9187 33.381C36.9757 33.438 37.0328 33.4951 37.0899 33.5521L37.1469 33.6092C37.204 33.6092 37.204 33.6663 37.2611 33.6663C37.3181 33.6663 37.3181 33.6663 37.3752 33.7233C37.4322 33.7233 37.4322 33.7233 37.4893 33.7804C37.5464 33.7804 37.6605 33.7804 37.7175 33.7804C37.7746 33.7804 37.8887 33.7804 37.9458 33.7804C38.0029 33.7804 38.0029 33.7804 38.0599 33.7233C38.117 33.7233 38.117 33.7233 38.174 33.6663C38.2311 33.6663 38.2311 33.6092 38.2882 33.6092C38.2882 33.6092 38.3452 33.6092 38.3452 33.5521C38.4023 33.4951 38.4593 33.438 38.5164 33.381L39.6576 32.2397C40.1141 31.7832 40.1141 31.0985 39.6576 30.642C39.4294 30.3567 39.1441 30.2997 38.8588 30.2997Z" fill="#32394D"/>
<path d="M5.76321 29.5576H8.61627C9.24395 29.5576 9.7575 29.0441 9.7575 28.4164C9.7575 27.7887 9.24395 27.2752 8.61627 27.2752H6.90443V25.5633C6.90443 24.9357 6.39088 24.4221 5.76321 24.4221C5.13553 24.4221 4.62198 24.9357 4.62198 25.5633V28.4164C4.62198 29.0441 5.13553 29.5576 5.76321 29.5576Z" fill="#32394D"/>
</svg>
