<svg width="50" height="33" viewBox="0 0 50 33" fill="none" xmlns="http://www.w3.org/2000/svg">
<path d="M14.369 8.21474L12.931 8.72077V7.24146C12.931 7.01283 12.8402 6.79356 12.6785 6.63189C12.5169 6.47022 12.2976 6.37939 12.069 6.37939C11.8403 6.37939 11.6211 6.47022 11.4594 6.63189C11.2977 6.79356 11.2069 7.01283 11.2069 7.24146V8.7225L9.76896 8.21646C9.66215 8.17888 9.54898 8.1627 9.43592 8.16885C9.32285 8.175 9.2121 8.20336 9.11 8.25231C9.0079 8.30126 8.91643 8.36985 8.84083 8.45414C8.76523 8.53844 8.70698 8.63681 8.66939 8.74362C8.63181 8.85043 8.61563 8.9636 8.62178 9.07667C8.62793 9.18973 8.65629 9.30048 8.70524 9.40258C8.75419 9.50469 8.82278 9.59615 8.90707 9.67175C8.99137 9.74735 9.08974 9.8056 9.19655 9.84319L10.6095 10.3397L9.51724 11.4699C9.35834 11.6344 9.27129 11.8553 9.27525 12.084C9.27921 12.3127 9.37386 12.5304 9.53836 12.6893C9.70286 12.8482 9.92375 12.9353 10.1524 12.9313C10.3811 12.9273 10.5989 12.8327 10.7578 12.6682L12.069 11.3104L13.3802 12.6725C13.5391 12.837 13.7568 12.9316 13.9855 12.9356C14.2142 12.9396 14.4351 12.8525 14.5996 12.6936C14.7641 12.5347 14.8587 12.317 14.8627 12.0883C14.8666 11.8596 14.7796 11.6387 14.6207 11.4742L13.5284 10.3423L14.9414 9.84577C15.1571 9.76987 15.3338 9.61138 15.4327 9.40517C15.5315 9.19896 15.5444 8.96192 15.4685 8.74621C15.3926 8.53049 15.2341 8.35376 15.0279 8.2549C14.8217 8.15604 14.5847 8.14314 14.369 8.21905V8.21474Z" fill="#32394D"/>
<path d="M22.9897 8.21474L21.5517 8.72077V7.24146C21.5517 7.01283 21.4609 6.79356 21.2992 6.63189C21.1376 6.47022 20.9183 6.37939 20.6897 6.37939C20.461 6.37939 20.2418 6.47022 20.0801 6.63189C19.9184 6.79356 19.8276 7.01283 19.8276 7.24146V8.7225L18.3897 8.21646C18.1739 8.14056 17.9369 8.15345 17.7307 8.25231C17.5245 8.35117 17.366 8.5279 17.2901 8.74362C17.2142 8.95934 17.2271 9.19637 17.3259 9.40258C17.4248 9.60879 17.6015 9.76728 17.8172 9.84319L19.2302 10.3397L18.1379 11.4699C17.979 11.6344 17.892 11.8553 17.896 12.084C17.8999 12.3127 17.9946 12.5304 18.1591 12.6893C18.3236 12.8482 18.5444 12.9353 18.7731 12.9313C19.0018 12.9273 19.2196 12.8327 19.3785 12.6682L20.6897 11.3104L22.0009 12.6725C22.1598 12.837 22.3775 12.9316 22.6062 12.9356C22.8349 12.9396 23.0558 12.8525 23.2203 12.6936C23.3848 12.5347 23.4794 12.317 23.4834 12.0883C23.4873 11.8596 23.4003 11.6387 23.2414 11.4742L22.1491 10.3423L23.5621 9.84577C23.7778 9.76987 23.9545 9.61138 24.0534 9.40517C24.1522 9.19896 24.1651 8.96192 24.0892 8.74621C24.0133 8.53049 23.8548 8.35376 23.6486 8.2549C23.4424 8.15604 23.2054 8.14314 22.9897 8.21905V8.21474Z" fill="#32394D"/>
<path d="M31.6103 8.21474L30.1724 8.72077V7.24146C30.1724 7.01283 30.0816 6.79356 29.9199 6.63189C29.7582 6.47022 29.539 6.37939 29.3103 6.37939C29.0817 6.37939 28.8624 6.47022 28.7008 6.63189C28.5391 6.79356 28.4483 7.01283 28.4483 7.24146V8.7225L27.0103 8.21646C26.7946 8.14056 26.5576 8.15345 26.3514 8.25231C26.1452 8.35117 25.9867 8.5279 25.9108 8.74362C25.8349 8.95934 25.8478 9.19637 25.9466 9.40258C26.0455 9.60879 26.2222 9.76728 26.4379 9.84319L27.8509 10.3397L26.7586 11.4699C26.5997 11.6344 26.5127 11.8553 26.5166 12.084C26.5206 12.3127 26.6152 12.5304 26.7797 12.6893C26.9442 12.8482 27.1651 12.9353 27.3938 12.9313C27.6225 12.9273 27.8402 12.8327 27.9991 12.6682L29.3103 11.3104L30.6215 12.6725C30.7804 12.837 30.9982 12.9316 31.2269 12.9356C31.4555 12.9396 31.6764 12.8525 31.8409 12.6936C32.0054 12.5347 32.1001 12.317 32.104 12.0883C32.108 11.8596 32.021 11.6387 31.8621 11.4742L30.7698 10.3423L32.1827 9.84577C32.3985 9.76987 32.5752 9.61138 32.6741 9.40517C32.7729 9.19896 32.7858 8.96192 32.7099 8.74621C32.634 8.53049 32.4755 8.35376 32.2693 8.2549C32.0631 8.15604 31.8261 8.14314 31.6103 8.21905V8.21474Z" fill="#32394D"/>
<path d="M40.231 8.21474L38.7931 8.72077V7.24146C38.7931 7.01283 38.7023 6.79356 38.5406 6.63189C38.3789 6.47022 38.1597 6.37939 37.931 6.37939C37.7024 6.37939 37.4831 6.47022 37.3215 6.63189C37.1598 6.79356 37.069 7.01283 37.069 7.24146V8.7225L35.631 8.21646C35.4153 8.14056 35.1783 8.15345 34.9721 8.25231C34.7659 8.35117 34.6074 8.5279 34.5315 8.74362C34.4556 8.95934 34.4684 9.19637 34.5673 9.40258C34.6662 9.60879 34.8429 9.76728 35.0586 9.84319L36.4715 10.3397L35.3793 11.4699C35.2204 11.6344 35.1334 11.8553 35.1373 12.084C35.1413 12.3127 35.2359 12.5304 35.4004 12.6893C35.5649 12.8482 35.7858 12.9353 36.0145 12.9313C36.2432 12.9273 36.4609 12.8327 36.6198 12.6682L37.931 11.3104L39.2422 12.6725C39.4011 12.837 39.6189 12.9316 39.8476 12.9356C40.0762 12.9396 40.2971 12.8525 40.4616 12.6936C40.6261 12.5347 40.7208 12.317 40.7247 12.0883C40.7287 11.8596 40.6417 11.6387 40.4828 11.4742L39.3905 10.3423L40.8034 9.84577C41.0192 9.76987 41.1959 9.61138 41.2948 9.40517C41.3936 9.19896 41.4065 8.96192 41.3306 8.74621C41.2547 8.53049 41.0962 8.35376 40.89 8.2549C40.6838 8.15604 40.4467 8.14314 40.231 8.21905V8.21474Z" fill="#32394D"/>
<path d="M48.2759 0H1.72414C1.26687 0 0.828327 0.18165 0.504988 0.504989C0.18165 0.828327 0 1.26687 0 1.72414V18.1034C0 18.5607 0.18165 18.9993 0.504988 19.3226C0.828327 19.6459 1.26687 19.8276 1.72414 19.8276H16.1759C15.6101 21.2654 15.4042 22.8198 15.5762 24.3553C15.7481 25.8909 16.2927 27.3612 17.1626 28.6383C18.0324 29.9153 19.2012 30.9605 20.5671 31.6828C21.9331 32.4051 23.4548 32.7827 25 32.7827C26.5452 32.7827 28.0669 32.4051 29.4329 31.6828C30.7988 30.9605 31.9676 29.9153 32.8374 28.6383C33.7073 27.3612 34.2519 25.8909 34.4238 24.3553C34.5958 22.8198 34.3899 21.2654 33.8241 19.8276H48.2759C48.7331 19.8276 49.1717 19.6459 49.495 19.3226C49.8184 18.9993 50 18.5607 50 18.1034V1.72414C50 1.26687 49.8184 0.828327 49.495 0.504989C49.1717 0.18165 48.7331 0 48.2759 0ZM25 31.0345C23.4655 31.0345 21.9654 30.5794 20.6895 29.7269C19.4136 28.8744 18.4192 27.6627 17.832 26.245C17.2447 24.8273 17.0911 23.2673 17.3905 21.7622C17.6898 20.2572 18.4288 18.8748 19.5138 17.7897C20.5989 16.7046 21.9813 15.9657 23.4864 15.6663C24.9914 15.367 26.5514 15.5206 27.9691 16.1078C29.3868 16.6951 30.5985 17.6895 31.4511 18.9654C32.3036 20.2413 32.7586 21.7414 32.7586 23.2759C32.7563 25.3329 31.9382 27.305 30.4837 28.7595C29.0291 30.214 27.057 31.0322 25 31.0345ZM25 13.7931C23.644 13.7942 22.3042 14.0883 21.0724 14.6552H5.17241V5.17241H44.8276V14.6552H28.9276C27.6958 14.0883 26.356 13.7942 25 13.7931ZM48.2759 18.1034H32.9379C32.5243 17.4735 32.0376 16.8948 31.4879 16.3793H45.6897C45.9183 16.3793 46.1376 16.2885 46.2992 16.1268C46.4609 15.9651 46.5517 15.7459 46.5517 15.5172V4.31035C46.5517 4.08171 46.4609 3.86244 46.2992 3.70077C46.1376 3.5391 45.9183 3.44828 45.6897 3.44828H4.31034C4.08171 3.44828 3.86244 3.5391 3.70077 3.70077C3.5391 3.86244 3.44828 4.08171 3.44828 4.31035V15.5172C3.44828 15.7459 3.5391 15.9651 3.70077 16.1268C3.86244 16.2885 4.08171 16.3793 4.31034 16.3793H18.5121C17.9624 16.8948 17.4757 17.4735 17.0621 18.1034H1.72414V1.72414H48.2759V18.1034Z" fill="#32394D"/>
<path d="M28.7009 20.0801L24.569 24.212L22.1612 21.8043C21.9986 21.6472 21.7809 21.5603 21.5549 21.5623C21.3288 21.5643 21.1126 21.6549 20.9528 21.8148C20.7929 21.9746 20.7023 22.1908 20.7003 22.4169C20.6983 22.6429 20.7852 22.8606 20.9423 23.0232L23.9595 26.0405C24.1212 26.2021 24.3404 26.2929 24.569 26.2929C24.7976 26.2929 25.0168 26.2021 25.1785 26.0405L29.9199 21.2991C30.0769 21.1365 30.1638 20.9187 30.1618 20.6927C30.1598 20.4667 30.0692 20.2505 29.9094 20.0906C29.7495 19.9308 29.5333 19.8401 29.3073 19.8382C29.0812 19.8362 28.8635 19.9231 28.7009 20.0801Z" fill="#32394D"/>
</svg>
