<svg width="42" height="42" viewBox="0 0 42 42" fill="none" xmlns="http://www.w3.org/2000/svg">
<path d="M14.6504 35.9695H11.6188L20.3004 2.90352C20.4809 2.21521 20.3302 1.49114 19.8871 0.916477C19.438 0.334154 18.7633 0 18.0362 0C17.027 0 16.145 0.676396 15.8904 1.64481L6.8789 35.9695H3.08614C1.38429 35.9695 0 37.3538 0 39.0556V40.6519H17.7366V39.0556C17.7366 37.3538 16.3523 35.9695 14.6504 35.9695ZM17.5378 2.07686C17.5961 1.85339 17.797 1.7027 18.0362 1.7027C18.2312 1.7027 18.4147 1.79507 18.539 1.95682C18.6573 2.11007 18.699 2.29779 18.6535 2.47147L9.91438 35.7566H8.69482L17.5378 2.07686ZM3.08614 37.6722H11.245C11.9712 37.6722 12.5625 38.2366 12.6178 38.9492H1.70695C1.76144 38.2358 2.35909 37.6722 3.08614 37.6722ZM14.3256 38.9492C14.3099 38.4912 14.1945 38.0587 13.9996 37.6722H14.65C15.3771 37.6722 15.9747 38.2358 16.0296 38.9492H14.3256Z" fill="#32394D"/>
<path d="M37.615 16.7423H29.5625V18.0904H27.3103C27.0242 17.1327 26.2652 16.3818 25.3083 16.094C25.3594 12.9291 26.1758 10.3304 27.572 8.93119C28.3851 8.11603 29.4058 7.7027 30.605 7.7027C33.54 7.7027 35.9357 11.2375 35.9455 15.5819L37.6482 15.5781C37.6367 10.2968 34.4769 6 30.605 6C28.9368 6 27.5107 6.58147 26.3665 7.72866C24.0751 10.0252 23.6392 13.8124 23.6039 16.0932C22.6453 16.3801 21.885 17.1314 21.599 18.0904H17.2988L17 21.0795L19.4438 41.0768H37.9781L38.7064 35.1174H39.6007C40.8727 35.1174 41.9071 34.083 41.9071 32.8115V21.0348C41.9071 18.6681 39.9817 16.7423 37.615 16.7423ZM36.4708 39.3741H20.9515L20.7783 37.9554H28.7827V36.2527H20.5697L19.5813 28.1649H27.9309V26.4622H19.3731L19.165 24.7595H27.9309V23.0568H18.9568L18.7129 21.0608L18.8398 19.7931H23.1774V18.9418C23.1774 18.2377 23.7503 17.6648 24.4544 17.6648C25.1585 17.6648 25.7314 18.2377 25.7314 18.9418V19.7931H29.5625V32.8115C29.5625 34.083 30.5969 35.1174 31.8684 35.1174H36.9914L36.4708 39.3741ZM40.2044 32.8115C40.2044 33.144 39.9336 33.4147 39.6012 33.4147H34.3513V25.3622H32.6486V33.4147H31.8684C31.5359 33.4147 31.2652 33.144 31.2652 32.8115V18.445H37.615C39.0427 18.445 40.2044 19.6067 40.2044 21.0344V32.8115Z" fill="#32394D"/>
</svg>
