<svg width="33" height="40" viewBox="0 0 33 40" fill="none" xmlns="http://www.w3.org/2000/svg">
<path d="M32.9693 10.0753C32.9693 9.03563 32.9197 7.99592 32.9197 7.05522C32.9197 6.31257 32.3256 5.66893 31.5335 5.66893C25.6912 5.66893 21.1858 3.98558 17.4725 0.371327C16.9279 -0.123776 16.0862 -0.123776 15.5416 0.371327C11.8284 3.98558 7.37242 5.66893 1.48069 5.66893C0.738039 5.66893 0.0944041 6.26306 0.0944041 7.05522C0.0944041 8.04543 0.0944049 9.03563 0.0448946 10.0753C-0.153147 19.9279 -0.4007 33.3947 16.0367 39.0884C16.1853 39.1379 16.3338 39.1874 16.4823 39.1874C16.6309 39.1874 16.7794 39.1379 16.9279 39.0884C33.3653 33.3947 33.1178 19.9279 32.9693 10.0753ZM16.5318 36.3653C2.4709 31.2658 2.66894 20.0269 2.86698 10.1744C2.86698 9.58025 2.86698 8.98612 2.91649 8.44151C8.41214 8.19396 12.8186 6.56012 16.5813 3.29244C20.3441 6.56012 24.7505 8.24347 30.2462 8.44151C30.2462 8.98612 30.2462 9.58025 30.2957 10.1744C30.3947 20.0269 30.5928 31.2163 16.5318 36.3653Z" fill="#32394D"/>
<path d="M21.2353 14.8286L14.6504 21.4135L11.8283 18.5914C11.2837 18.0468 10.442 18.0468 9.89741 18.5914C9.3528 19.136 9.3528 19.9777 9.89741 20.5223L13.7097 24.3346C13.9573 24.5822 14.3038 24.7307 14.6999 24.7307C15.0465 24.7307 15.3931 24.5822 15.6901 24.3346L23.2652 16.7595C23.8098 16.2149 23.8098 15.3732 23.2652 14.8286C22.6711 14.284 21.7799 14.284 21.2353 14.8286Z" fill="#32394D"/>
</svg>
