<svg width="38" height="31" viewBox="0 0 38 31" fill="none" xmlns="http://www.w3.org/2000/svg">
<path d="M23.863 15.2282L25.4581 13.633C23.5887 12.388 21.334 11.6682 18.9996 11.6682C13.5332 11.6682 8.68926 15.5395 7.5026 20.8697C7.36642 21.4514 7.73604 22.0369 8.3391 22.1731C8.9227 22.3073 9.5063 21.9377 9.64248 21.3346C10.6151 17.016 14.5448 13.884 18.9996 13.884C20.7504 13.8859 22.4039 14.3722 23.863 15.2282Z" fill="#32394D"/>
<path d="M29.3877 17.9126L27.7536 19.5467C28.0065 20.1108 28.2205 20.7158 28.3586 21.3364C28.4754 21.8636 28.9208 22.2118 29.4266 22.2118C29.5064 22.2118 29.5823 22.1924 29.662 22.1729C30.2651 22.0367 30.6347 21.4512 30.4985 20.8695C30.2631 19.819 29.8741 18.8269 29.3877 17.9126Z" fill="#32394D"/>
<path d="M18.9996 8.04997C22.3261 8.04997 25.4406 9.17827 27.9482 11.1431L29.5258 9.56734C26.6078 7.19402 22.9116 5.83228 19.0015 5.83228C12.3679 5.83228 6.35675 9.76188 3.71108 15.8508C3.47764 16.415 3.73053 17.0569 4.27523 17.3098C4.43086 17.3662 4.56703 17.4051 4.72266 17.4051C5.15064 17.4051 5.55916 17.1542 5.73424 16.7457C8.0278 11.4543 13.2413 8.04997 18.9996 8.04997Z" fill="#32394D"/>
<path d="M33.3154 13.9829L31.7007 15.5975C31.9167 15.9672 32.0917 16.3368 32.2668 16.7258C32.5197 17.2705 33.1597 17.5234 33.7258 17.2919C34.2686 17.0371 34.5234 16.3971 34.288 15.8329C34.0196 15.189 33.6869 14.5665 33.3154 13.9829Z" fill="#32394D"/>
<path d="M37.8636 11.1546C34.0955 4.27393 26.8666 0 18.9996 0C11.1326 0 3.90368 4.27393 0.135543 11.1546C-0.156259 11.6896 0.0382754 12.3588 0.573246 12.6525C1.10627 12.9443 1.77742 12.7498 2.07116 12.2148C5.45218 6.0403 11.938 2.20602 18.9996 2.20602C26.0612 2.20602 32.5489 6.04225 35.9299 12.2168C36.1322 12.5825 36.5077 12.7887 36.8987 12.7887C37.0777 12.7887 37.2605 12.7459 37.4259 12.6525C37.9609 12.3588 38.1573 11.6896 37.8636 11.1546Z" fill="#32394D"/>
<path d="M32.2668 12.3102L32.9652 11.6098C33.3348 11.2208 33.3348 10.6177 32.9652 10.2286C32.5781 9.85901 31.9731 9.85901 31.5859 10.2286L31.1385 10.6761C31.1385 10.715 31.0996 10.7344 31.0802 10.7539L30.9459 10.8706L29.3682 12.4463L26.993 14.8196L25.4386 16.3759L22.402 19.4126C21.8378 19.0216 21.1958 18.7298 20.5344 18.5567C20.0481 18.4399 19.5228 18.3602 18.9976 18.3602C15.6322 18.3602 12.9281 21.0837 12.9281 24.4511C12.9281 27.7971 15.6322 30.5186 18.9976 30.5186C22.3631 30.5186 25.0671 27.7971 25.0671 24.4511C25.0671 23.7896 24.9504 23.1477 24.7558 22.5446C24.5418 21.8832 24.2286 21.2801 23.824 20.7549L26.7615 17.8174L28.2964 16.2806L30.6522 13.9267L32.2279 12.351C32.2279 12.3101 32.2493 12.3102 32.2668 12.3102Z" fill="#32394D"/>
</svg>
