<svg width="42" height="26" viewBox="0 0 42 26" fill="none" xmlns="http://www.w3.org/2000/svg">
<path d="M14.1277 17.8552C14.7357 17.8552 15.2287 18.3574 15.2287 18.9767C15.2287 19.596 14.7357 20.0982 14.1277 20.0982H6.06281C5.45484 20.0982 4.9618 19.596 4.9618 18.9767C4.9618 18.3574 5.45484 17.8552 6.06281 17.8552H14.1277ZM18.2366 17.8552C17.6286 17.8552 17.1355 18.3574 17.1355 18.9767C17.1355 19.596 17.6286 20.0982 18.2366 20.0982H20.7689C21.3768 20.0982 21.8699 19.596 21.8699 18.9767C21.8699 18.3574 21.3768 17.8552 20.7689 17.8552H18.2366ZM41.6971 14.9782C42.116 15.4273 42.0982 16.1371 41.6574 16.5638C40.2668 17.9098 38.0474 18.1545 36.1417 17.6673V21.6934C36.1417 23.9257 34.3587 25.7419 32.1671 25.7419H3.97464C1.78308 25.7419 0 23.9258 0 21.6934V4.04857C0 1.81625 1.78297 0 3.97464 0H32.1671C34.3586 0 36.1417 1.81614 36.1417 4.04857V11.4163C37.5413 11.959 39.301 11.8347 40.1405 11.0222C40.5812 10.5956 41.2781 10.6134 41.6969 11.0626C42.116 11.5115 42.0983 12.2214 41.6574 12.6481C39.6793 14.5633 36.0229 14.2491 33.9789 12.7687C32.4894 11.6903 30.0885 11.6315 29.0387 12.648C28.5976 13.0747 27.9009 13.0567 27.482 12.6079C27.0631 12.1589 27.0807 11.449 27.5215 11.0223C29.156 9.44 31.8532 9.36554 33.9397 10.218V7.8965H2.20202V10.6029H23.7691C24.3771 10.6029 24.8701 11.1051 24.8701 11.7244C24.8701 12.3436 24.3771 12.8458 23.7691 12.8458H2.20202V21.6934C2.20202 22.6889 2.99727 23.499 3.97464 23.499H32.1671C33.1444 23.499 33.9397 22.6889 33.9397 21.6934V16.6564C32.4475 15.6049 30.0792 15.5561 29.0385 16.5637C28.5977 16.9905 27.9008 16.9725 27.4819 16.5235C27.063 16.0746 27.0806 15.3647 27.5214 14.938C29.5293 12.994 33.1409 13.3261 35.2544 14.8562C36.6892 15.8956 39.1094 15.936 40.1403 14.938C40.5812 14.511 41.2782 14.5294 41.6971 14.9782ZM2.20202 5.65364H33.9397V4.04857C33.9397 3.05302 33.1444 2.24297 32.1671 2.24297H3.97464C2.99727 2.24297 2.20202 3.05302 2.20202 4.04857V5.65364Z" fill="#32394D"/>
</svg>
