<svg width="44" height="44" viewBox="0 0 44 44" fill="none" xmlns="http://www.w3.org/2000/svg">
<path d="M21.2067 19.8426L21.2067 19.8427C20.4626 20.0163 19.828 20.4716 19.4228 21.094C19.1922 21.4481 19.0451 21.8584 18.9867 22.3003C18.9867 22.3003 18.9867 22.3003 18.9867 22.3003L21.2067 19.8426ZM21.2067 19.8426C21.423 19.7921 21.6424 19.7599 21.8682 19.7599C22.0941 19.7599 22.3134 19.7921 22.5297 19.8426L22.5298 19.8427M21.2067 19.8426L22.5298 19.8427M22.5298 19.8427C23.3281 20.029 23.9942 20.5451 24.3926 21.2401L22.5298 19.8427ZM28.179 20.4067L28.1789 20.4066C28.0113 19.9424 27.4988 19.6973 27.0334 19.8688C27.0332 19.8688 27.0331 19.8689 27.0329 19.869L25.9118 20.2732C25.2359 19.1424 24.0995 18.3203 22.7626 18.0619V17.5315C22.7626 17.0372 22.3621 16.6371 21.8682 16.6371C21.3744 16.6371 20.9738 17.0372 20.9738 17.5315V18.0619C19.6477 18.3182 18.5195 19.1298 17.8417 20.2468L16.9531 19.9198L16.953 19.9198C16.4895 19.7495 15.9758 19.9862 15.805 20.45L15.8049 20.45C15.6342 20.9137 15.8718 21.4282 16.3357 21.5986L17.2221 21.9247C17.1816 22.1703 17.1588 22.4224 17.1588 22.6805C17.1588 25.2772 19.2712 27.39 21.8682 27.39C24.4652 27.39 26.5777 25.2772 26.5777 22.6805C26.5777 22.4328 26.5558 22.1912 26.5184 21.9557L27.6409 21.5509L27.641 21.5509C28.1056 21.3832 28.3463 20.8713 28.179 20.4067Z" fill="#32394D" stroke="#32394D" stroke-width="0.3"/>
<path d="M14.1099 11.9287C13.7573 12.2747 13.7521 12.8407 14.0984 13.1935L14.0985 13.1936C14.2737 13.3718 14.5053 13.4609 14.7364 13.4609C14.9625 13.4609 15.1894 13.3753 15.3632 13.2041C15.3632 13.2041 15.3633 13.204 15.3633 13.204L16.9471 11.6478C16.9471 11.6478 16.9471 11.6478 16.9472 11.6478C16.9472 11.6478 16.9472 11.6478 16.9472 11.6478C17.2997 11.3017 17.3047 10.7357 16.9586 10.383L16.9585 10.383C16.6118 10.0302 16.0454 10.0257 15.6937 10.3725C15.6936 10.3726 15.6936 10.3726 15.6936 10.3726L14.1099 11.9287ZM14.1099 11.9287L14.2149 12.0358L14.1098 11.9288L14.1099 11.9287Z" fill="#32394D" stroke="#32394D" stroke-width="0.3"/>
<path d="M17.2661 10.0816L17.2661 10.0815C16.9198 9.72874 16.925 9.16275 17.2774 8.81675C17.2774 8.81673 17.2775 8.81672 17.2775 8.81671L17.9469 8.159C17.4508 7.41355 17.1588 6.52061 17.1588 5.55944C17.1588 2.96277 19.2712 0.85 21.8682 0.85C24.4652 0.85 26.5777 2.96277 26.5777 5.55944C26.5777 6.50301 26.2973 7.38184 25.8175 8.11919L26.5313 8.80618C26.8872 9.14856 26.8982 9.71536 26.5557 10.071C26.3801 10.2535 26.1454 10.3452 25.9112 10.3452C25.6883 10.3452 25.4644 10.2623 25.291 10.0953L24.5743 9.40552C24.0409 9.78192 23.4269 10.0496 22.7626 10.178V11.1424C22.7626 11.6367 22.3621 12.0368 21.8682 12.0368C21.3744 12.0368 20.9738 11.6367 20.9738 11.1424V10.1781C20.3258 10.0529 19.7257 9.79523 19.2015 9.43322L18.531 10.092L17.2661 10.0816ZM17.2661 10.0816C17.4413 10.2598 17.673 10.3488 17.9042 10.3488M17.2661 10.0816L17.9042 10.3488M17.9042 10.3488C18.1301 10.3488 18.3571 10.2633 18.5309 10.0921L17.9042 10.3488ZM24.7889 5.55944C24.7889 3.94922 23.4784 2.6388 21.8682 2.6388C20.258 2.6388 18.9476 3.94922 18.9476 5.55944C18.9476 6.13074 19.1187 6.66096 19.4053 7.11336C19.6293 7.46705 19.9222 7.76979 20.2702 7.99871C20.2702 7.99871 20.2702 7.99871 20.2702 7.99872L24.7889 5.55944ZM24.7889 5.55944C24.7889 6.12553 24.6198 6.65106 24.3378 7.10114M24.7889 5.55944L24.3378 7.10114M24.3378 7.10114C24.1204 7.448 23.8401 7.74867 23.505 7.97643M24.3378 7.10114L23.505 7.97643M23.505 7.97643C23.229 8.16387 22.9138 8.29794 22.5761 8.38284C22.344 8.44109 22.1102 8.48008 21.8682 8.48008C21.6263 8.48008 21.3924 8.44109 21.1603 8.38284L23.505 7.97643Z" fill="#32394D" stroke="#32394D" stroke-width="0.3"/>
<path d="M29.7936 13.1881C30.1365 12.8324 30.1253 12.2664 29.7696 11.9234L29.7695 11.9234L28.1506 10.3648L28.1506 10.3648C27.7953 10.0231 27.2294 10.0338 26.8864 10.389L26.8863 10.3891C26.5433 10.7448 26.5545 11.3108 26.9102 11.6538L26.9103 11.6539L28.5292 13.2124C28.5292 13.2124 28.5292 13.2125 28.5292 13.2125C28.7026 13.3794 28.9265 13.4623 29.1494 13.4623C29.3837 13.4623 29.618 13.3706 29.7936 13.1881ZM29.7936 13.1881C29.7935 13.1881 29.7935 13.1882 29.7935 13.1882L29.6855 13.0841L29.7936 13.188C29.7936 13.1881 29.7936 13.1881 29.7936 13.1881ZM26.9943 10.4932C26.709 10.7891 26.718 11.2601 27.0143 11.5458L28.0466 10.4729C27.7511 10.1887 27.28 10.1974 26.9943 10.4932Z" fill="#32394D" stroke="#32394D" stroke-width="0.3"/>
<path d="M28.6371 20.2416L28.6372 20.2417C28.7687 20.6061 29.1125 20.8329 29.4787 20.8329C29.5786 20.8329 29.6815 20.8165 29.7822 20.7795C29.7824 20.7794 29.7825 20.7794 29.7827 20.7793L30.768 20.4245C31.5904 21.8008 33.0936 22.7267 34.8116 22.7267C37.4086 22.7267 39.521 20.6138 39.521 18.0172C39.521 15.4206 37.4086 13.3078 34.8116 13.3078C33.8035 13.3078 32.8715 13.63 32.1055 14.1711L31.3888 13.4812L31.3887 13.4811C31.0331 13.1396 30.4673 13.1502 30.1242 13.5055L30.1241 13.5056C29.7816 13.8612 29.7926 14.428 30.1485 14.7704C30.1485 14.7704 30.1485 14.7704 30.1486 14.7704L30.8623 15.4575C30.3825 16.1948 30.1022 17.0737 30.1022 18.0172C30.1022 18.2649 30.124 18.5066 30.1615 18.7422L29.1758 19.0973C28.7108 19.2642 28.4699 19.777 28.6371 20.2416ZM30.2321 13.6097C29.9472 13.9055 29.9563 14.3773 30.2525 14.6623L30.2321 13.6097ZM32.342 16.4756L32.342 16.4756C32.5593 16.1286 32.8397 15.828 33.1749 15.6002C33.6423 15.2827 34.2054 15.0966 34.8116 15.0966C36.4218 15.0966 37.7323 16.4069 37.7323 18.0172C37.7323 19.6274 36.4218 20.9379 34.8116 20.9379C33.7597 20.9379 32.8429 20.373 32.3281 19.5331C32.1263 19.2038 31.9914 18.8328 31.9336 18.4333C31.9316 18.4195 31.9296 18.4058 31.9277 18.3923C31.9084 18.2604 31.891 18.141 31.891 18.0172C31.891 17.451 32.0599 16.9256 32.342 16.4756Z" fill="#32394D" stroke="#32394D" stroke-width="0.3"/>
<path d="M15.3476 20.2835L15.3476 20.2836C15.2142 20.6455 14.8721 20.8688 14.5082 20.8688C14.4056 20.8688 14.3011 20.8513 14.1993 20.8136M15.3476 20.2835L13.1489 20.2674M15.3476 20.2835C15.5183 19.8198 15.2808 19.3053 14.8169 19.135L13.8345 18.7734C13.875 18.5278 13.8978 18.2755 13.8978 18.0174C13.8978 17.0564 13.6059 16.1634 13.1098 15.418L13.7795 14.7601C13.7795 14.7601 13.7795 14.7601 13.7795 14.7601C14.132 14.4141 14.1371 13.8481 13.7909 13.4954L13.7909 13.4954C13.4443 13.1426 12.8774 13.1379 12.526 13.4848C12.5259 13.4849 12.5259 13.4849 12.5258 13.485L11.8554 14.1438C11.0968 13.6193 10.1793 13.308 9.18838 13.308C6.5914 13.308 4.47894 15.4208 4.47894 18.0174C4.47894 20.614 6.59139 22.7269 9.18838 22.7269C10.895 22.7269 12.3889 21.8126 13.2147 20.4514M15.3476 20.2835L13.1489 20.2674M14.1993 20.8136L14.2513 20.6729L14.1995 20.8137L14.1993 20.8136ZM14.1993 20.8136L13.2147 20.4514M13.2147 20.4514C13.2367 20.4152 13.2582 20.3786 13.2792 20.3417L13.1489 20.2674M13.2147 20.4514L13.0972 20.4082L13.1489 20.2674M10.7867 15.5783L10.7867 15.5783C10.3262 15.2755 9.77827 15.0968 9.18838 15.0968C7.57816 15.0968 6.26773 16.4072 6.26773 18.0174C6.26773 19.6277 7.57816 20.9381 9.18838 20.9381C10.2334 20.9381 11.1457 20.3812 11.6625 19.5507L11.6625 19.5507C11.8667 19.2225 12.004 18.8517 12.0645 18.4525C12.0645 18.4525 12.0645 18.4525 12.0645 18.4524L12.0661 18.4416C12.0886 18.2929 12.109 18.1573 12.109 18.0174C12.109 17.446 11.9378 16.9156 11.6512 16.4632L10.7867 15.5783ZM10.7867 15.5783C11.1346 15.807 11.4272 16.1097 11.6512 16.4632L10.7867 15.5783Z" fill="#32394D" stroke="#32394D" stroke-width="0.3"/>
<path d="M14.2526 38.7492C14.2526 36.9067 14.9106 35.2156 16.0035 33.8968C16.4219 33.392 16.9086 32.9464 17.4437 32.5626C18.693 31.6665 20.2179 31.1331 21.8682 31.1331C23.6299 31.1331 25.2495 31.7399 26.5417 32.7489L26.634 32.6307L26.5417 32.7489C27.0906 33.1774 27.5773 33.6792 27.9914 34.24C28.9251 35.5047 29.4839 37.0611 29.4839 38.7492V43.3557V43.3559V43.5059H29.6339H31.1227H31.2727V43.3559V38.7492C31.2727 36.0668 30.1374 33.6506 28.3311 31.9365C28.7752 28.7537 31.5094 26.2946 34.8116 26.2946C38.4228 26.2946 41.3612 29.2326 41.3612 32.8441V37.1521V37.3021H41.5112H43H43.15V37.1521V32.8441C43.15 28.2462 39.4095 24.5058 34.8116 24.5058C30.9461 24.5058 27.6952 27.1522 26.7547 30.7254C25.3295 29.8535 23.6586 29.3444 21.8682 29.3444C20.171 29.3444 18.583 29.8045 17.208 30.5945C16.223 27.0881 13.0064 24.5058 9.18838 24.5058C4.59047 24.5058 0.85 28.2462 0.85 32.8441V37.1521V37.3021H1H2.4888H2.6388V37.1521V32.8441C2.6388 29.2326 5.57722 26.2946 9.18838 26.2946C12.4167 26.2946 15.1004 28.6457 15.6339 31.7251C13.6943 33.4485 12.4638 35.9552 12.4638 38.7492V43.3559V43.5059H12.6138H14.1026H14.2526V43.3559V43.3557V38.7492Z" fill="#32394D" stroke="#32394D" stroke-width="0.3"/>
<path d="M21.8682 16.079C22.3621 16.079 22.7626 15.6789 22.7626 15.1846V13.655C22.7626 13.1607 22.3621 12.7606 21.8682 12.7606C21.3744 12.7606 20.9738 13.1607 20.9738 13.655V15.1846C20.9738 15.6789 21.3744 16.079 21.8682 16.079Z" fill="#32394D" stroke="#32394D" stroke-width="0.3"/>
</svg>
