<svg width="48" height="32" viewBox="0 0 48 32" fill="none" xmlns="http://www.w3.org/2000/svg">
<path d="M46.2333 0.233252H1.76667C1.28805 0.233252 0.9 0.621298 0.9 1.09992V30.2332C0.9 30.7119 1.28805 31.0999 1.76667 31.0999H5.6C6.07862 31.0999 6.46667 30.7119 6.46667 30.2332V28.0332H41.5333V30.2332C41.5333 30.7119 41.9214 31.0999 42.4 31.0999H46.2333C46.712 31.0999 47.1 30.7119 47.1 30.2332V1.09992C47.1 0.621298 46.712 0.233252 46.2333 0.233252ZM4.73333 29.3666H2.63333V28.0332H4.73333V29.3666ZM30.0333 26.2999H2.63333V1.96659H30.0333V26.2999ZM45.3667 29.3666H43.2667V28.0332H45.3667V29.3666ZM45.3667 26.2999H31.7667V23.4332H45.3667V26.2999ZM45.3667 21.6999H31.7667V1.96659H45.3667V21.6999Z" fill="#32394D" stroke="#32394D" stroke-width="0.2"/>
<path d="M34.6333 7.23348L34.6333 7.2336C34.6359 9.40473 36.3954 11.1643 38.5665 11.1668H38.5667C40.7389 11.1668 42.5 9.40576 42.5 7.23348C42.5 5.0612 40.7389 3.30015 38.5667 3.30015C36.3944 3.30015 34.6333 5.0612 34.6333 7.23348ZM40.7667 7.23375C40.7665 8.44858 39.7818 9.43334 38.5669 9.43348C38.2878 9.43237 38.0121 9.3773 37.7547 9.2717L40.6049 6.42152C40.7105 6.67891 40.7655 6.95465 40.7667 7.23375ZM36.3667 7.2333C36.3668 6.0184 37.3516 5.03358 38.5665 5.03348C38.8456 5.0346 39.1213 5.08968 39.3786 5.19526L36.5284 8.04545C36.4229 7.78808 36.3678 7.51237 36.3667 7.2333Z" fill="#32394D" stroke="#32394D" stroke-width="0.2"/>
<path d="M34.6333 16.4334L34.6333 16.4335C34.6359 18.6047 36.3954 20.3642 38.5665 20.3668H38.5667C40.7389 20.3668 42.5 18.6057 42.5 16.4334C42.5 14.2611 40.7389 12.5001 38.5667 12.5001C36.3944 12.5001 34.6333 14.2611 34.6333 16.4334ZM40.7667 16.4337C40.7665 17.6485 39.7818 18.6333 38.5669 18.6334C38.2878 18.6323 38.0121 18.5772 37.7547 18.4717L40.6049 15.6215C40.7105 15.8789 40.7655 16.1546 40.7667 16.4337ZM36.3667 16.4333C36.3668 15.2184 37.3516 14.2335 38.5665 14.2334C38.8456 14.2346 39.1213 14.2896 39.3786 14.3952L36.5284 17.2454C36.4229 16.988 36.3678 16.7123 36.3667 16.4333Z" fill="#32394D" stroke="#32394D" stroke-width="0.2"/>
<path d="M4.83332 24.2001H27.8333C28.3119 24.2001 28.7 23.8121 28.7 23.3335V4.16681C28.7 3.68819 28.3119 3.30015 27.8333 3.30015H4.83332C4.3547 3.30015 3.96666 3.68819 3.96666 4.16681V23.3335C3.96666 23.8121 4.3547 24.2001 4.83332 24.2001ZM5.69999 5.03348H26.9667V22.4668H5.69999V5.03348Z" fill="#32394D" stroke="#32394D" stroke-width="0.2"/>
<path d="M11.7575 13.0731L11.7574 13.073C10.9668 12.4416 10.8379 11.2888 11.4693 10.4982C11.5544 10.3918 11.651 10.2951 11.7574 10.2102L11.7575 10.2101C12.1313 9.911 12.1918 9.36545 11.8927 8.99163C11.5936 8.61776 11.048 8.55734 10.6742 8.85642L10.6742 8.85642C9.13598 10.0871 8.88662 12.3317 10.1173 13.8699C10.2818 14.0755 10.4686 14.2623 10.6742 14.4268L10.6743 14.4268C11.4649 15.0583 11.5938 16.211 10.9623 17.0016C10.8772 17.1081 10.7806 17.2048 10.6743 17.2897L10.6742 17.2898C10.3003 17.5889 10.2399 18.1344 10.539 18.5082C10.8381 18.8821 11.3837 18.9425 11.7575 18.6435L11.695 18.5654L11.7575 18.6435C13.2957 17.4128 13.5451 15.1682 12.3144 13.63C12.1499 13.4244 11.9631 13.2375 11.7575 13.0731Z" fill="#32394D" stroke="#32394D" stroke-width="0.2"/>
<path d="M15.5811 8.93435L15.5812 8.9345L15.5811 8.93435ZM15.5811 8.93435L15.581 8.9342L15.5811 8.93435ZM16.6021 13.0731L16.602 13.073C15.8114 12.4416 15.6824 11.2888 16.3139 10.4982C16.399 10.3918 16.4956 10.2951 16.602 10.2102L16.602 10.2101C16.9759 9.911 17.0363 9.36545 16.7372 8.99163C16.4381 8.61776 15.8926 8.55734 15.5188 8.85642L15.5188 8.85642C13.9805 10.0871 13.7312 12.3317 14.9619 13.8699C15.1263 14.0755 15.3132 14.2623 15.5187 14.4268C16.3094 15.0596 16.4373 16.2134 15.8046 17.004L15.8045 17.004C15.7201 17.1095 15.6243 17.2053 15.5188 17.2898C15.1449 17.5889 15.0845 18.1344 15.3835 18.5082C15.6827 18.8821 16.2282 18.9425 16.602 18.6435L16.6021 18.6434C18.1403 17.4114 18.3885 15.1656 17.1565 13.6275C16.9926 13.4229 16.8067 13.237 16.6021 13.0731Z" fill="#32394D" stroke="#32394D" stroke-width="0.2"/>
<path d="M21.9948 13.0731L21.9947 13.073C21.2041 12.4416 21.0752 11.2888 21.7066 10.4982C21.7917 10.3918 21.8883 10.2951 21.9947 10.2102L21.9948 10.2101C22.3686 9.911 22.4291 9.36545 22.13 8.99163C21.8309 8.61776 21.2853 8.55734 20.9115 8.85642L20.9115 8.85642C19.3733 10.0871 19.1239 12.3317 20.3546 13.8699C20.5191 14.0755 20.7059 14.2623 20.9115 14.4268L20.9116 14.4268C21.7021 15.0583 21.8311 16.211 21.1996 17.0016C21.1145 17.1081 21.0179 17.2048 20.9116 17.2897L20.9115 17.2898C20.5376 17.5889 20.4772 18.1344 20.7763 18.5082C21.0754 18.8821 21.6209 18.9425 21.9948 18.6435L21.9323 18.5654L21.9948 18.6435C23.533 17.4128 23.7823 15.1682 22.5516 13.63C22.3872 13.4244 22.2003 13.2375 21.9948 13.0731Z" fill="#32394D" stroke="#32394D" stroke-width="0.2"/>
</svg>
