<svg width="42" height="42" viewBox="0 0 42 42" fill="none" xmlns="http://www.w3.org/2000/svg">
<path d="M27.8333 22.6686C28.3333 22.6686 28.6667 22.3313 28.6667 21.8254V20.7294C28.6667 20.2235 28.3333 19.8862 27.8333 19.8862C27.3333 19.8862 27 20.2235 27 20.7294V21.8254C27 22.247 27.4167 22.6686 27.8333 22.6686Z" fill="#32394D"/>
<path d="M11.5245 38.5322L12.4 38.3108V40.7118C12.4 41.2782 12.8669 41.6549 13.3333 41.6549H40.1667C40.4397 41.6549 40.6749 41.5623 40.842 41.3933C41.0089 41.2244 41.1 40.9871 41.1 40.7118V1.84314C41.1 1.56782 41.0089 1.33046 40.842 1.16157C40.6749 0.992566 40.4397 0.9 40.1667 0.9H13.1667C12.8936 0.9 12.6584 0.992566 12.4914 1.16157C12.3244 1.33046 12.2333 1.56782 12.2333 1.84314V18.8275L11.4433 18.6095L11.4302 18.6059H11.4167H11.4157H11.4147H11.4137H11.4128H11.4118H11.4108H11.4099H11.4089H11.408H11.407H11.406H11.4051H11.4041H11.4032H11.4022H11.4013H11.4003H11.3994H11.3984H11.3975H11.3966H11.3956H11.3947H11.3938H11.3928H11.3919H11.391H11.39H11.3891H11.3882H11.3873H11.3864H11.3854H11.3845H11.3836H11.3827H11.3818H11.3809H11.38H11.3791H11.3781H11.3772H11.3763H11.3754H11.3745H11.3736H11.3727H11.3719H11.371H11.3701H11.3692H11.3683H11.3674H11.3665H11.3656H11.3648H11.3639H11.363H11.3621H11.3612H11.3604H11.3595H11.3586H11.3577H11.3569H11.356H11.3551H11.3543H11.3534H11.3526H11.3517H11.3508H11.35H11.3491H11.3483H11.3474H11.3466H11.3457H11.3449H11.344H11.3432H11.3423H11.3415H11.3406H11.3398H11.3389H11.3381H11.3373H11.3364H11.3356H11.3348H11.3339H11.3331H11.3323H11.3314H11.3306H11.3298H11.329H11.3281H11.3273H11.3265H11.3257H11.3248H11.324H11.3232H11.3224H11.3216H11.3208H11.3199H11.3191H11.3183H11.3175H11.3167H11.3159H11.3151H11.3143H11.3135H11.3127H11.3119H11.3111H11.3103H11.3095H11.3087H11.3079H11.3071H11.3063H11.3055H11.3047H11.3039H11.3031H11.3023H11.3015H11.3007H11.2999H11.2992H11.2984H11.2976H11.2968H11.296H11.2952H11.2944H11.2937H11.2929H11.2921H11.2913H11.2906H11.2898H11.289H11.2882H11.2874H11.2867H11.2859H11.2851H11.2844H11.2836H11.2828H11.282H11.2813H11.2805H11.2797H11.279H11.2782H11.2774H11.2767H11.2759H11.2752H11.2744H11.2736H11.2729H11.2721H11.2714H11.2706H11.2698H11.2691H11.2683H11.2676H11.2668H11.2661H11.2653H11.2645H11.2638H11.263H11.2623H11.2615H11.2608H11.26H11.2593H11.2585H11.2578H11.257H11.2563H11.2555H11.2548H11.254H11.2533H11.2525H11.2518H11.2511H11.2503H11.2496H11.2488H11.2481H11.2473H11.2466H11.2459H11.2451H11.2444H11.2436H11.2429H11.2421H11.2414H11.2407H11.2399H11.2392H11.2384H11.2377H11.237H11.2362H11.2355H11.2348H11.234H11.2333H11.2325H11.2318H11.2311H11.2303H11.2296H11.2289H11.2281H11.2274H11.2267H11.2259H11.2252H11.2245H11.2237H11.223H11.2223H11.2215H11.2208H11.2201H11.2193H11.2186H11.2179H11.2171H11.2164H11.2157H11.2149H11.2142H11.2135H11.2127H11.212H11.2113H11.2105H11.2098H11.2091H11.2083H11.2076H11.2069H11.2061H11.2054H11.2047H11.2039H11.2032H11.2025H11.2017H11.201H11.2003H11.1995H11.1988H11.1981H11.1973H11.1966H11.1959H11.1951H11.1944H11.1937H11.1929H11.1922H11.1915H11.1907H11.19H11.1893H11.1885H11.1878H11.1871H11.1863H11.1856H11.1849H11.1841H11.1834H11.1826H11.1819H11.1812H11.1804H11.1797H11.179H11.1782H11.1775H11.1767H11.176H11.1753H11.1745H11.1738H11.173H11.1723H11.1716H11.1708H11.1701H11.1693H11.1686H11.1678H11.1671H11.1664H11.1656H11.1649H11.1641H11.1634H11.1626H11.1619H11.1611H11.1604H11.1596H11.1589H11.1581H11.1574H11.1566H11.1559H11.1551H11.1544H11.1536H11.1529H11.1521H11.1514H11.1506H11.1499H11.1491H11.1483H11.1476H11.1468H11.1461H11.1453H11.1446H11.1438H11.143H11.1423H11.1415H11.1407H11.14H11.1392H11.1385H11.1377H11.1369H11.1362H11.1354H11.1346H11.1338H11.1331H11.1323H11.1315H11.1308H11.13H11.1292H11.1284H11.1277H11.1269H11.1261H11.1253H11.1246H11.1238H11.123H11.1222H11.1214H11.1207H11.1199H11.1191H11.1183H11.1175H11.1167H11.1159H11.1151H11.1144H11.1136H11.1128H11.112H11.1112H11.1104H11.1096H11.1088H11.108H11.1072H11.1064H11.1056H11.1048H11.104H11.1032H11.1024H11.1016H11.1008H11.1H11.0992H11.0983H11.0975H11.0967H11.0959H11.0951H11.0943H11.0935H11.0926H11.0918H11.091H11.0902H11.0894H11.0885H11.0877H11.0869H11.0861H11.0852H11.0844H11.0836H11.0827H11.0819H11.0811H11.0802H11.0794H11.0786H11.0777H11.0769H11.076H11.0752H11.0744H11.0735H11.0727H11.0718H11.071H11.0701H11.0693H11.0684H11.0675H11.0667H11.0658H11.065H11.0641H11.0633H11.0624H11.0615H11.0607H11.0598H11.0589H11.058H11.0572H11.0563H11.0554H11.0546H11.0537H11.0528H11.0519H11.051H11.0501H11.0493H11.0484H11.0475H11.0466H11.0457H11.0448H11.0439H11.043H11.0421H11.0412H11.0403H11.0394H11.0385H11.0376H11.0367H11.0358H11.0349H11.034H11.0331H11.0321H11.0312H11.0303H11.0294H11.0285H11.0275H11.0266H11.0257H11.0248H11.0238H11.0229H11.022H11.021H11.0201H11.0192H11.0182H11.0173H11.0163H11.0154H11.0144H11.0135H11.0125H11.0116H11.0106H11.0097H11.0087H11.0078H11.0068H11.0058H11.0049H11.0039H11.0029H11.0019H11.001H11H10.9885L10.9773 18.6085L1.56066 20.8006L1.56066 20.8006L1.55881 20.8011C1.36024 20.8513 1.19596 20.9985 1.08316 21.1697C0.970024 21.3414 0.9 21.55 0.9 21.7412V34.8098C0.9 35.2682 1.17272 35.6511 1.55683 35.7494L10.9717 38.5312L10.9855 38.5353H11H11.0005H11.001H11.0015H11.002H11.0024H11.0029H11.0034H11.0039H11.0044H11.0049H11.0054H11.0059H11.0063H11.0068H11.0073H11.0078H11.0083H11.0088H11.0093H11.0098H11.0103H11.0107H11.0112H11.0117H11.0122H11.0127H11.0132H11.0137H11.0142H11.0146H11.0151H11.0156H11.0161H11.0166H11.0171H11.0176H11.0181H11.0186H11.019H11.0195H11.02H11.0205H11.021H11.0215H11.022H11.0225H11.0229H11.0234H11.0239H11.0244H11.0249H11.0254H11.0259H11.0264H11.0269H11.0273H11.0278H11.0283H11.0288H11.0293H11.0298H11.0303H11.0308H11.0312H11.0317H11.0322H11.0327H11.0332H11.0337H11.0342H11.0347H11.0352H11.0356H11.0361H11.0366H11.0371H11.0376H11.0381H11.0386H11.0391H11.0396H11.04H11.0405H11.041H11.0415H11.042H11.0425H11.043H11.0435H11.0439H11.0444H11.0449H11.0454H11.0459H11.0464H11.0469H11.0474H11.0479H11.0483H11.0488H11.0493H11.0498H11.0503H11.0508H11.0513H11.0518H11.0522H11.0527H11.0532H11.0537H11.0542H11.0547H11.0552H11.0557H11.0562H11.0566H11.0571H11.0576H11.0581H11.0586H11.0591H11.0596H11.0601H11.0605H11.061H11.0615H11.062H11.0625H11.063H11.0635H11.064H11.0645H11.0649H11.0654H11.0659H11.0664H11.0669H11.0674H11.0679H11.0684H11.0688H11.0693H11.0698H11.0703H11.0708H11.0713H11.0718H11.0723H11.0728H11.0732H11.0737H11.0742H11.0747H11.0752H11.0757H11.0762H11.0767H11.0771H11.0776H11.0781H11.0786H11.0791H11.0796H11.0801H11.0806H11.0811H11.0815H11.082H11.0825H11.083H11.0835H11.084H11.0845H11.085H11.0854H11.0859H11.0864H11.0869H11.0874H11.0879H11.0884H11.0889H11.0894H11.0898H11.0903H11.0908H11.0913H11.0918H11.0923H11.0928H11.0933H11.0938H11.0942H11.0947H11.0952H11.0957H11.0962H11.0967H11.0972H11.0977H11.0981H11.0986H11.0991H11.0996H11.1001H11.1006H11.1011H11.1016H11.1021H11.1025H11.103H11.1035H11.104H11.1045H11.105H11.1055H11.106H11.1064H11.1069H11.1074H11.1079H11.1084H11.1089H11.1094H11.1099H11.1104H11.1108H11.1113H11.1118H11.1123H11.1128H11.1133H11.1138H11.1143H11.1147H11.1152H11.1157H11.1162H11.1167H11.1172H11.1177H11.1182H11.1187H11.1191H11.1196H11.1201H11.1206H11.1211H11.1216H11.1221H11.1226H11.123H11.1235H11.124H11.1245H11.125H11.1255H11.126H11.1265H11.127H11.1274H11.1279H11.1284H11.1289H11.1294H11.1299H11.1304H11.1309H11.1313H11.1318H11.1323H11.1328H11.1333H11.1338H11.1343H11.1348H11.1353H11.1357H11.1362H11.1367H11.1372H11.1377H11.1382H11.1387H11.1392H11.1396H11.1401H11.1406H11.1411H11.1416H11.1421H11.1426H11.1431H11.1436H11.144H11.1445H11.145H11.1455H11.146H11.1465H11.147H11.1475H11.1479H11.1484H11.1489H11.1494H11.1499H11.1504H11.1509H11.1514H11.1519H11.1523H11.1528H11.1533H11.1538H11.1543H11.1548H11.1553H11.1558H11.1562H11.1567H11.1572H11.1577H11.1582H11.1587H11.1592H11.1597H11.1602H11.1606H11.1611H11.1616H11.1621H11.1626H11.1631H11.1636H11.1641H11.1646H11.165H11.1655H11.166H11.1665H11.167H11.1675H11.168H11.1685H11.1689H11.1694H11.1699H11.1704H11.1709H11.1714H11.1719H11.1724H11.1729H11.1733H11.1738H11.1743H11.1748H11.1753H11.1758H11.1763H11.1768H11.1772H11.1777H11.1782H11.1787H11.1792H11.1797H11.1802H11.1807H11.1812H11.1816H11.1821H11.1826H11.1831H11.1836H11.1841H11.1846H11.1851H11.1855H11.186H11.1865H11.187H11.1875H11.188H11.1885H11.189H11.1895H11.1899H11.1904H11.1909H11.1914H11.1919H11.1924H11.1929H11.1934H11.1938H11.1943H11.1948H11.1953H11.1958H11.1963H11.1968H11.1973H11.1978H11.1982H11.1987H11.1992H11.1997H11.2002H11.2007H11.2012H11.2017H11.2021H11.2026H11.2031H11.2036H11.2041H11.2046H11.2051H11.2056H11.2061H11.2065H11.207H11.2075H11.208H11.2085H11.209H11.2095H11.21H11.2104H11.2109H11.2114H11.2119H11.2124H11.2129H11.2134H11.2139H11.2144H11.2148H11.2153H11.2158H11.2163H11.2168H11.2173H11.2178H11.2183H11.2188H11.2192H11.2197H11.2202H11.2207H11.2212H11.2217H11.2222H11.2227H11.2231H11.2236H11.2241H11.2246H11.2251H11.2256H11.2261H11.2266H11.2271H11.2275H11.228H11.2285H11.229H11.2295H11.23H11.2305H11.231H11.2314H11.2319H11.2324H11.2329H11.2334H11.2339H11.2344H11.2349H11.2354H11.2358H11.2363H11.2368H11.2373H11.2378H11.2383H11.2388H11.2393H11.2397H11.2402H11.2407H11.2412H11.2417H11.2422H11.2427H11.2432H11.2437H11.2441H11.2446H11.2451H11.2456H11.2461H11.2466H11.2471H11.2476H11.248H11.2485H11.249H11.2495H11.25H11.2505H11.251H11.2515H11.252H11.2524H11.2529H11.2534H11.2539H11.2544H11.2549H11.2554H11.2559H11.2563H11.2568H11.2573H11.2578H11.2583H11.2588H11.2593H11.2598H11.2603H11.2607H11.2612H11.2617H11.2622H11.2627H11.2632H11.2637H11.2642H11.2646H11.2651H11.2656H11.2661H11.2666H11.2671H11.2676H11.2681H11.2686H11.269H11.2695H11.27H11.2705H11.271H11.2715H11.272H11.2725H11.2729H11.2734H11.2739H11.2744H11.2749H11.2754H11.2759H11.2764H11.2769H11.2773H11.2778H11.2783H11.2788H11.2793H11.2798H11.2803H11.2808H11.2812H11.2817H11.2822H11.2827H11.2832H11.2837H11.2842H11.2847H11.2852H11.2856H11.2861H11.2866H11.2871H11.2876H11.2881H11.2886H11.2891H11.2896H11.29H11.2905H11.291H11.2915H11.292H11.2925H11.293H11.2935H11.2939H11.2944H11.2949H11.2954H11.2959H11.2964H11.2969H11.2974H11.2979H11.2983H11.2988H11.2993H11.2998H11.3003H11.3008H11.3013H11.3018H11.3022H11.3027H11.3032H11.3037H11.3042H11.3047H11.3052H11.3057H11.3062H11.3066H11.3071H11.3076H11.3081H11.3086H11.3091H11.3096H11.3101H11.3105H11.311H11.3115H11.312H11.3125H11.313H11.3135H11.314H11.3145H11.3149H11.3154H11.3159H11.3164H11.3169H11.3174H11.3179H11.3184H11.3188H11.3193H11.3198H11.3203H11.3208H11.3213H11.3218H11.3223H11.3228H11.3232H11.3237H11.3242H11.3247H11.3252H11.3257H11.3262H11.3267H11.3271H11.3276H11.3281H11.3286H11.3291H11.3296H11.3301H11.3306H11.3311H11.3315H11.332H11.3325H11.333H11.3335H11.334H11.3345H11.335H11.3354H11.3359H11.3364H11.3369H11.3374H11.3379H11.3384H11.3389H11.3394H11.3398H11.3403H11.3408H11.3413H11.3418H11.3423H11.3428H11.3433H11.3438H11.3442H11.3447H11.3452H11.3457H11.3462H11.3467H11.3472H11.3477H11.3481H11.3486H11.3491H11.3496H11.3501H11.3506H11.3511H11.3516H11.3521H11.3525H11.353H11.3535H11.354H11.3545H11.355H11.3555H11.356H11.3564H11.3569H11.3574H11.3579H11.3584H11.3589H11.3594H11.3599H11.3604H11.3608H11.3613H11.3618H11.3623H11.3628H11.3633H11.3638H11.3643H11.3647H11.3652H11.3657H11.3662H11.3667H11.3672H11.3677H11.3682H11.3687H11.3691H11.3696H11.3701H11.3706H11.3711H11.3716H11.3721H11.3726H11.373H11.3735H11.374H11.3745H11.375H11.3755H11.376H11.3765H11.377H11.3774H11.3779H11.3784H11.3789H11.3794H11.3799H11.3804H11.3809H11.3813H11.3818H11.3823H11.3828H11.3833H11.3838H11.3843H11.3848H11.3853H11.3857H11.3862H11.3867H11.3872H11.3877H11.3882H11.3887H11.3892H11.3896H11.3901H11.3906H11.3911H11.3916H11.3921H11.3926H11.3931H11.3936H11.394H11.3945H11.395H11.3955H11.396H11.3965H11.397H11.3975H11.3979H11.3984H11.3989H11.3994H11.3999H11.4004H11.4009H11.4014H11.4019H11.4023H11.4028H11.4033H11.4038H11.4043H11.4048H11.4053H11.4058H11.4062H11.4067H11.4072H11.4077H11.4082H11.4087H11.4092H11.4097H11.4102H11.4106H11.4111H11.4116H11.4121H11.4126H11.4131H11.4136H11.4141H11.4146H11.415H11.4155H11.416H11.4165H11.417H11.4175H11.418H11.4185H11.4189H11.4194H11.4199H11.4204H11.4209H11.4214H11.4219H11.4224H11.4229H11.4233H11.4238H11.4243H11.4248H11.4253H11.4258H11.4263H11.4268H11.4272H11.4277H11.4282H11.4287H11.4292H11.4297H11.4302H11.4307H11.4312H11.4316H11.4321H11.4326H11.4331H11.4336H11.4341H11.4346H11.4351H11.4355H11.436H11.4365H11.437H11.4375H11.438H11.4385H11.439H11.4395H11.4399H11.4404H11.4409H11.4414H11.4419H11.4424H11.4429H11.4434H11.4438H11.4443H11.4448H11.4453H11.4458H11.4463H11.4468H11.4473H11.4478H11.4482H11.4487H11.4492H11.4497H11.4502H11.4507H11.4512H11.4517H11.4521H11.4526H11.4531H11.4536H11.4541H11.4546H11.4551H11.4556H11.4561H11.4565H11.457H11.4575H11.458H11.4585H11.459H11.4595H11.46H11.4604H11.4609H11.4614H11.4619H11.4624H11.4629H11.4634H11.4639H11.4644H11.4648H11.4653H11.4658H11.4663H11.4668H11.4673H11.4678H11.4683H11.4688H11.4692H11.4697H11.4702H11.4707H11.4712H11.4717H11.4722H11.4727H11.4731H11.4736H11.4741H11.4746H11.4751H11.4756H11.4761H11.4766H11.4771H11.4775H11.478H11.4785H11.479H11.4795H11.48H11.4805H11.481H11.4814H11.4819H11.4824H11.4829H11.4834H11.4839H11.4844H11.4849H11.4854H11.4858H11.4863H11.4868H11.4873H11.4878H11.4883H11.4888H11.4893H11.4897H11.4902H11.4907H11.4912H11.4917H11.4922H11.4927H11.4932H11.4937H11.4941H11.4946H11.4951H11.4956H11.4961H11.4966H11.4971H11.4976H11.498H11.4985H11.499H11.4995H11.5H11.5125L11.5245 38.5322ZM31.8516 4.52718L22.5002 2.78627H39.2333V39.6843H23.2185L31.8522 38.0276L31.8532 38.0274C32.3207 37.9328 32.6 37.551 32.6 37.0863V5.46863C32.6 5.0039 32.3207 4.62208 31.8532 4.52746L31.8516 4.52718ZM19.65 34.1448L12.1 36.3625V25.1886L19.65 22.9709V34.1448ZM14.1833 19.3016V3.14447L30.7333 6.31014V36.3291L14.1833 39.4947V37.6675L20.8579 35.7499C20.8584 35.7498 20.8589 35.7496 20.8594 35.7495C21.2438 35.6514 21.5167 35.2684 21.5167 34.8098V21.7412C21.5167 21.355 21.232 20.9787 20.7717 20.8847L14.1833 19.3016ZM5.47615 21.8357L11.1667 20.4949L16.8572 21.8357L11.1667 23.4919L5.47615 21.8357ZM2.76667 34.1448V22.9709L10.3167 25.1886V36.3625L2.76667 34.1448Z" fill="#32394D" stroke="#32394D" stroke-width="0.2"/>
</svg>
