<svg width="45" height="47" viewBox="0 0 45 47" fill="none" xmlns="http://www.w3.org/2000/svg">
<path d="M0.775863 43.4484H4.92207C5.24271 44.3561 5.83693 45.1421 6.62289 45.698C7.40884 46.2539 8.34785 46.5525 9.31054 46.5525C10.2732 46.5525 11.2122 46.2539 11.9982 45.698C12.7841 45.1421 13.3784 44.3561 13.699 43.4484H25.6034V45.776C25.6034 45.9818 25.6852 46.1791 25.8307 46.3246C25.9762 46.4701 26.1735 46.5519 26.3793 46.5519H29.4828C29.6885 46.5519 29.8859 46.4701 30.0314 46.3246C30.1769 46.1791 30.2586 45.9818 30.2586 45.776V43.4484H32.0772C32.4376 44.4684 33.1419 45.331 34.0692 45.888C34.9966 46.445 36.089 46.6616 37.1586 46.5005C38.2283 46.3395 39.2085 45.8108 39.9307 45.0054C40.6529 44.2001 41.072 43.1683 41.116 42.0875L44.4473 41.0885C44.6071 41.0405 44.7473 40.9423 44.8468 40.8083C44.9464 40.6744 45.0001 40.5119 45 40.345V34.1381C45 33.9678 44.9439 33.8023 44.8405 33.667C44.7371 33.5317 44.5921 33.4342 44.4278 33.3896L35.9679 31.0821L32.3235 29.2598C31.6796 28.9392 30.9769 28.7539 30.2586 28.7152V22.5001C30.4644 22.5001 30.6617 22.4184 30.8072 22.2729C30.9527 22.1274 31.0345 21.93 31.0345 21.7243V19.3967H33.1681C33.6309 19.3961 34.0746 19.2121 34.4019 18.8848C34.7292 18.5575 34.9133 18.1138 34.9138 17.651V7.95272C34.9133 7.4899 34.7292 7.04619 34.4019 6.71893C34.0746 6.39166 33.6309 6.20757 33.1681 6.20703H22.7852C22.3224 6.20757 21.8787 6.39166 21.5514 6.71893C21.2242 7.04619 21.0401 7.4899 21.0395 7.95272V17.651C21.0401 18.1138 21.2242 18.5575 21.5514 18.8848C21.8787 19.2121 22.3224 19.3961 22.7852 19.3967H24.8276V21.7243C24.8276 21.93 24.9093 22.1274 25.0548 22.2729C25.2003 22.4184 25.3977 22.5001 25.6034 22.5001V28.707H21.884C20.6322 28.7081 19.4002 29.0187 18.2975 29.6112L9.82125 34.1755C9.22694 34.2931 6.44984 34.8432 4.42581 35.2492C3.60889 35.4104 2.83995 35.7573 2.17838 36.2629C1.51681 36.7686 0.980309 37.4195 0.610314 38.1655L0.592566 38.2009C0.202418 38.9752 -0.000545511 39.8303 1.10116e-06 40.6974V42.6726C1.10116e-06 42.8783 0.0817435 43.0757 0.227246 43.2212C0.372748 43.3667 0.570092 43.4484 0.775863 43.4484ZM9.31035 45.0001C8.69654 45.0001 8.09652 44.8181 7.58616 44.4771C7.0758 44.1361 6.67803 43.6514 6.44313 43.0843C6.20824 42.5172 6.14678 41.8932 6.26653 41.2912C6.38628 40.6892 6.68185 40.1362 7.11588 39.7022C7.5499 39.2682 8.10288 38.9726 8.70489 38.8529C9.3069 38.7331 9.9309 38.7946 10.498 39.0295C11.0651 39.2644 11.5498 39.6621 11.8908 40.1725C12.2318 40.6829 12.4138 41.2829 12.4138 41.8967C12.4129 42.7195 12.0856 43.5083 11.5038 44.0901C10.922 44.6719 10.1331 44.9992 9.31035 45.0001ZM28.7069 45.0001H27.1552V43.4484H28.7069V45.0001ZM36.4655 45.0001C35.8517 45.0001 35.2517 44.8181 34.7413 44.4771C34.231 44.1361 33.8332 43.6514 33.5983 43.0843C33.3634 42.5172 33.302 41.8932 33.4217 41.2912C33.5415 40.6892 33.837 40.1362 34.271 39.7022C34.7051 39.2682 35.2581 38.9726 35.8601 38.8529C36.4621 38.7331 37.0861 38.7946 37.6532 39.0295C38.2202 39.2644 38.7049 39.6621 39.0459 40.1725C39.387 40.6829 39.569 41.2829 39.569 41.8967C39.568 42.7195 39.2408 43.5083 38.659 44.0901C38.0772 44.6719 37.2883 44.9992 36.4655 45.0001ZM31.6295 30.6479L34.3513 32.0086C32.741 33.3879 30.6893 34.1435 28.5691 34.1381H26.3793V30.2588H29.9813C30.5534 30.2594 31.1175 30.3926 31.6295 30.6479ZM26.3793 20.9484V19.3967H29.4828V20.9484H26.3793ZM28.7069 22.5001V28.707H27.1552V22.5001H28.7069ZM22.7852 17.845C22.7338 17.845 22.6844 17.8245 22.6481 17.7882C22.6117 17.7518 22.5913 17.7024 22.5913 17.651V7.95272C22.5913 7.90128 22.6117 7.85194 22.6481 7.81557C22.6844 7.77919 22.7338 7.75876 22.7852 7.75876H33.1681C33.2195 7.75876 33.2689 7.77919 33.3053 7.81557C33.3416 7.85194 33.3621 7.90128 33.3621 7.95272V17.651C33.3621 17.7024 33.3416 17.7518 33.3053 17.7882C33.2689 17.8245 33.2195 17.845 33.1681 17.845H22.7852ZM19.0333 30.9775C19.9097 30.5065 20.889 30.2596 21.884 30.2588H24.8276V34.1381H13.1637L19.0333 30.9775ZM1.55173 40.698C1.55144 40.0717 1.69813 39.4541 1.98 38.8948L1.99775 38.8595C2.26276 38.3251 2.64706 37.8589 3.12095 37.4967C3.59484 37.1345 4.14565 36.8861 4.73082 36.7707C6.80538 36.3545 9.67064 35.7871 10.1619 35.6898H28.5692C31.3211 35.6972 33.9638 34.614 35.9188 32.6772L43.4483 34.7306V39.7677L40.915 40.5277C40.5873 39.4622 39.8881 38.5496 38.9445 37.956C38.001 37.3623 36.8757 37.127 35.7733 37.2928C34.671 37.4585 33.6647 38.0144 32.9374 38.8592C32.2102 39.7041 31.8102 40.7819 31.8103 41.8967H13.9655C13.9655 40.6621 13.4751 39.478 12.6021 38.605C11.729 37.732 10.545 37.2415 9.31035 37.2415C8.07572 37.2415 6.89166 37.732 6.01864 38.605C5.14563 39.478 4.65517 40.6621 4.65517 41.8967H1.55173V40.698Z" fill="white"/>
<path d="M18.6206 39.5693H20.9482C21.1539 39.5693 21.3513 39.4876 21.4968 39.3421C21.6423 39.1966 21.724 38.9992 21.724 38.7934C21.724 38.5877 21.6423 38.3903 21.4968 38.2448C21.3513 38.0993 21.1539 38.0176 20.9482 38.0176H18.6206C18.4148 38.0176 18.2175 38.0993 18.072 38.2448C17.9265 38.3903 17.8447 38.5877 17.8447 38.7934C17.8447 38.9992 17.9265 39.1966 18.072 39.3421C18.2175 39.4876 18.4148 39.5693 18.6206 39.5693Z" fill="white"/>
<path d="M9.31025 39.5693C8.8499 39.5693 8.39989 39.7058 8.01712 39.9616C7.63435 40.2174 7.33601 40.5809 7.15984 41.0062C6.98367 41.4315 6.93758 41.8995 7.02739 42.351C7.1172 42.8025 7.33888 43.2173 7.6644 43.5428C7.98992 43.8683 8.40466 44.09 8.85616 44.1798C9.30767 44.2696 9.77567 44.2235 10.201 44.0473C10.6263 43.8712 10.9898 43.5728 11.2456 43.1901C11.5013 42.8073 11.6378 42.3573 11.6378 41.8969C11.6371 41.2798 11.3917 40.6882 10.9553 40.2518C10.519 39.8155 9.92736 39.57 9.31025 39.5693ZM9.31025 42.6728C9.1568 42.6728 9.0068 42.6273 8.87921 42.542C8.75162 42.4568 8.65217 42.3356 8.59345 42.1938C8.53473 42.0521 8.51936 41.8961 8.5493 41.7456C8.57924 41.5951 8.65313 41.4568 8.76164 41.3483C8.87014 41.2398 9.00839 41.1659 9.15889 41.136C9.30939 41.106 9.46539 41.1214 9.60716 41.1801C9.74893 41.2388 9.87011 41.3383 9.95536 41.4659C10.0406 41.5935 10.0861 41.7435 10.0861 41.8969C10.0859 42.1026 10.0041 42.2998 9.85862 42.4453C9.71316 42.5907 9.51595 42.6726 9.31025 42.6728Z" fill="white"/>
<path d="M36.4655 39.5693C36.0052 39.5693 35.5552 39.7058 35.1724 39.9616C34.7896 40.2174 34.4913 40.5809 34.3151 41.0062C34.1389 41.4315 34.0929 41.8995 34.1827 42.351C34.2725 42.8025 34.4942 43.2173 34.8197 43.5428C35.1452 43.8683 35.5599 44.09 36.0114 44.1798C36.4629 44.2696 36.9309 44.2235 37.3563 44.0473C37.7816 43.8712 38.1451 43.5728 38.4008 43.1901C38.6566 42.8073 38.7931 42.3573 38.7931 41.8969C38.7924 41.2798 38.547 40.6882 38.1106 40.2518C37.6743 39.8155 37.0826 39.57 36.4655 39.5693ZM36.4655 42.6728C36.3121 42.6728 36.1621 42.6273 36.0345 42.542C35.9069 42.4568 35.8074 42.3356 35.7487 42.1938C35.69 42.0521 35.6746 41.8961 35.7046 41.7456C35.7345 41.5951 35.8084 41.4568 35.9169 41.3483C36.0254 41.2398 36.1637 41.1659 36.3142 41.136C36.4647 41.106 36.6207 41.1214 36.7624 41.1801C36.9042 41.2388 37.0254 41.3383 37.1106 41.4659C37.1959 41.5935 37.2414 41.7435 37.2414 41.8969C37.2412 42.1026 37.1593 42.2998 37.0139 42.4453C36.8684 42.5907 36.6712 42.6726 36.4655 42.6728Z" fill="white"/>
<path d="M27.1553 16.2933C27.361 16.2933 27.5584 16.2116 27.7039 16.0661C27.8494 15.9206 27.9311 15.7232 27.9311 15.5174V13.9657H28.707C29.3243 13.9657 29.9163 13.7205 30.3528 13.284C30.7893 12.8475 31.0346 12.2554 31.0346 11.6381C31.0346 11.0208 30.7893 10.4288 30.3528 9.99228C29.9163 9.55577 29.3243 9.31055 28.707 9.31055H27.1553C26.9495 9.31055 26.7521 9.39229 26.6066 9.53779C26.4611 9.68329 26.3794 9.88064 26.3794 10.0864V15.5174C26.3794 15.7232 26.4611 15.9206 26.6066 16.0661C26.7521 16.2116 26.9495 16.2933 27.1553 16.2933ZM27.9311 10.8623H28.707C28.9128 10.8623 29.1101 10.944 29.2556 11.0895C29.4011 11.235 29.4828 11.4324 29.4828 11.6381C29.4828 11.8439 29.4011 12.0412 29.2556 12.1868C29.1101 12.3323 28.9128 12.414 28.707 12.414H27.9311V10.8623Z" fill="white"/>
<path d="M34.9138 4.65524C35.3252 4.65573 35.7196 4.81937 36.0105 5.11027C36.3014 5.40117 36.465 5.79557 36.4655 6.20696C36.4655 6.41274 36.5473 6.61008 36.6928 6.75558C36.8383 6.90108 37.0356 6.98283 37.2414 6.98283C37.4472 6.98283 37.6445 6.90108 37.79 6.75558C37.9355 6.61008 38.0173 6.41274 38.0173 6.20696C38.0163 5.38416 37.6891 4.59532 37.1072 4.01352C36.5254 3.43171 35.7366 3.10444 34.9138 3.10352C34.708 3.10352 34.5107 3.18526 34.3652 3.33076C34.2197 3.47626 34.1379 3.67361 34.1379 3.87938C34.1379 4.08515 34.2197 4.28249 34.3652 4.42799C34.5107 4.5735 34.708 4.65524 34.9138 4.65524Z" fill="white"/>
<path d="M34.9138 1.55172C36.148 1.55311 37.3313 2.04401 38.204 2.91672C39.0767 3.78944 39.5676 4.97269 39.569 6.2069C39.569 6.41267 39.6507 6.61001 39.7962 6.75551C39.9417 6.90102 40.1391 6.98276 40.3448 6.98276C40.5506 6.98276 40.748 6.90102 40.8935 6.75551C41.039 6.61001 41.1207 6.41267 41.1207 6.2069C41.1189 4.56129 40.4643 2.98362 39.3007 1.82C38.1371 0.656381 36.5594 0.00184819 34.9138 0C34.708 0 34.5107 0.0817423 34.3652 0.227245C34.2197 0.372747 34.1379 0.570091 34.1379 0.775862C34.1379 0.981634 34.2197 1.17898 34.3652 1.32448C34.5107 1.46998 34.708 1.55172 34.9138 1.55172Z" fill="white"/>
</svg>
