<svg width="45" height="41" viewBox="0 0 45 41" fill="none" xmlns="http://www.w3.org/2000/svg">
<path d="M28.9286 5.25974C34.8998 5.25974 39.7403 10.1003 39.7403 16.0714C39.7403 16.5556 39.3478 16.9481 38.8637 16.9481C38.3795 16.9481 37.9871 16.5556 37.9871 16.0714C37.9871 11.0686 33.9315 7.01299 28.9286 7.01299C28.4445 7.01299 28.052 6.62051 28.052 6.13636C28.052 5.65222 28.4445 5.25974 28.9286 5.25974ZM28.9286 9.93506C32.3176 9.93506 35.065 12.6824 35.065 16.0714C35.065 16.5556 34.6725 16.9481 34.1884 16.9481C33.7042 16.9481 33.3117 16.5556 33.3117 16.0714C33.3117 13.6507 31.3494 11.6883 28.9286 11.6883C28.4445 11.6883 28.052 11.2958 28.052 10.8117C28.052 10.3275 28.4445 9.93506 28.9286 9.93506ZM28.9286 0C37.8046 0 45.0001 7.19542 45.0001 16.0714C45.0001 16.5556 44.6076 16.9481 44.1234 16.9481C43.6393 16.9481 43.2468 16.5556 43.2468 16.0714C43.2468 8.16371 36.8363 1.75325 28.9286 1.75325C28.4445 1.75325 28.052 1.36077 28.052 0.876623C28.052 0.392478 28.4445 0 28.9286 0Z" fill="white"/>
<path d="M19.1396 13.1494C22.3546 13.1494 24.954 13.3795 28.0241 13.9118C28.9648 14.0749 30.3199 15.1757 30.7316 16.0207L32.5587 19.4851L33.4463 18.976C33.9523 18.6858 34.5581 18.6254 35.1114 18.8101C36.7649 19.3618 37.7496 19.8687 38.0657 20.3308C38.4346 20.8701 38.3634 21.6503 37.8521 22.6713L35.2451 23.5931C36.2496 24.3728 36.923 25.5515 37.0378 26.8872C37.0862 27.4508 37.1104 28.0741 37.1104 28.7571C37.1104 31.0839 36.9156 33.252 36.526 35.2613V38.5715C36.526 39.7012 35.6102 40.6169 34.4805 40.6169H29.8052C28.6755 40.6169 27.7597 39.7012 27.7597 38.5715V37.6949H10.2273V38.5715C10.2273 39.7012 9.31149 40.6169 8.18182 40.6169H3.50649C2.37682 40.6169 1.46104 39.7012 1.46104 38.5715V34.9511C1.07143 33.0183 0.876623 30.9456 0.876623 28.7329C0.876623 28.0568 0.902093 27.4395 0.953031 26.8811C1.07904 25.4997 1.80227 24.2889 2.87007 23.5165L0.445474 22.6713C-0.0658028 21.6503 -0.13698 20.8701 0.231943 20.3308C0.548708 19.8676 1.53728 19.3595 3.19765 18.8063C3.74446 18.6241 4.34276 18.681 4.84537 18.9631L5.73314 19.4614C6.12098 18.7261 6.59982 17.8183 7.53511 16.0453C7.95932 15.1757 9.31442 14.0749 10.2551 13.9118C13.3253 13.3795 15.9246 13.1494 19.1396 13.1494ZM19.0556 23.3767C14.4298 23.3767 9.80359 23.723 5.17631 24.4159C3.84445 24.6153 2.82137 25.6992 2.69903 27.0403C2.65317 27.5431 2.62987 28.1077 2.62987 28.7329C2.62987 30.8324 2.8138 32.7894 3.17972 34.6047L3.21429 34.7762V38.5715C3.21429 38.7329 3.34511 38.8637 3.50649 38.8637H8.18182C8.3432 38.8637 8.47403 38.7329 8.47403 38.5715V35.9416H29.513V38.5715C29.513 38.7329 29.6438 38.8637 29.8052 38.8637H34.4805C34.6419 38.8637 34.7727 38.7329 34.7727 38.5715V35.0929L34.8048 34.9276C35.1723 33.032 35.3571 30.9753 35.3571 28.7571C35.3571 28.1221 35.3349 27.5484 35.2909 27.0373C35.175 25.6884 34.1477 24.5958 32.8084 24.3971C28.2234 23.7168 23.6393 23.3767 19.0556 23.3767ZM33.1071 26.1516C33.7139 26.3027 34.0908 26.9026 33.9719 27.5095L33.9589 27.5682L33.4173 29.7431C33.2164 30.5495 32.5476 31.1543 31.725 31.2732C30.681 31.4241 29.746 31.564 28.9201 31.693C28.5896 31.7446 28.274 31.7836 27.9732 31.81C27.9261 31.8237 27.8768 31.8343 27.8259 31.8412C24.9309 32.2371 22.0354 32.4351 19.1397 32.4351C16.244 32.4351 13.3485 32.2371 10.4536 31.8412C10.4137 31.8358 10.3747 31.8281 10.3368 31.8184C10.0067 31.792 9.65852 31.7502 9.29187 31.693C8.46598 31.564 7.53096 31.4241 6.48694 31.2732C5.6644 31.1543 4.99556 30.5495 4.79472 29.7431L4.25312 27.5682C4.09712 26.9418 4.47846 26.3076 5.10486 26.1516C5.29146 26.1051 5.48665 26.1054 5.67311 26.1524L10.1275 27.2757C10.557 27.384 10.9296 27.6508 11.1704 28.0226L12.4746 30.0362C12.5362 30.1312 12.5822 30.2318 12.6133 30.335C14.7887 30.5664 16.9643 30.6819 19.1397 30.6819C21.2919 30.6819 23.4442 30.5688 25.5968 30.3428C25.6214 30.258 25.6562 30.175 25.7015 30.0953L25.7373 30.0362L27.0416 28.0226C27.2674 27.6741 27.6089 27.4178 28.0046 27.2979L28.0845 27.2757L32.5389 26.1524C32.7253 26.1054 32.9205 26.1051 33.1071 26.1516ZM32.0219 28.0909L28.5132 28.9757L27.808 30.0645C28.0711 30.0417 28.3518 30.0072 28.6497 29.9607C29.4825 29.8307 30.424 29.6898 31.4742 29.538C31.58 29.5227 31.668 29.4512 31.7054 29.353L31.716 29.3194L32.0219 28.0909ZM6.19008 28.0909L6.49601 29.3194C6.5247 29.4346 6.62025 29.521 6.73775 29.538C7.788 29.6898 8.72948 29.8307 9.56233 29.9607C9.86022 30.0072 10.1409 30.0417 10.404 30.0645L9.69882 28.9757L6.19008 28.0909ZM19.1396 14.9027C16.0265 14.9027 13.5272 15.1239 10.5547 15.6393C10.1947 15.7017 9.29821 16.4299 9.09839 16.8385L7.26251 20.3198L7.2821 20.3308L6.23704 22.4935C10.5099 21.9135 14.7828 21.6234 19.0556 21.6234C23.4196 21.6234 27.7836 21.926 32.1476 22.531L31.7604 21.7298L29.1684 16.814C28.981 16.4299 28.0846 15.7017 27.7246 15.6393C24.752 15.1239 22.2528 14.9027 19.1396 14.9027ZM34.3186 20.4969L33.377 21.0369L33.9802 22.1807L36.5105 21.286C36.4478 21.2483 36.3733 21.207 36.2877 21.1629C35.8855 20.9559 35.305 20.7229 34.5565 20.4732C34.4774 20.4468 34.3909 20.4554 34.3186 20.4969ZM3.75187 20.4696C2.99987 20.7202 2.41655 20.9539 2.01249 21.1616C1.9276 21.2052 1.85365 21.2462 1.79109 21.2836L4.30918 22.1614L4.39112 22.006C4.59473 21.6199 4.76456 21.2979 4.91497 21.0127L3.98725 20.492C3.91545 20.4517 3.82998 20.4436 3.75187 20.4696Z" fill="white"/>
</svg>
