<svg width="40" height="43" viewBox="0 0 40 43" fill="none" xmlns="http://www.w3.org/2000/svg">
<path d="M30.007 14.9732C31.4855 14.9732 32.8722 14.3968 33.9165 13.3525C34.9623 12.3082 35.5387 10.92 35.5402 9.44152C35.5402 7.96459 34.9638 6.57327 33.9165 5.52749C31.8265 3.43745 28.1861 3.43745 26.0961 5.52749C25.0503 6.57327 24.4754 7.96306 24.4739 9.43999C24.4739 10.9185 25.0503 12.3082 26.0961 13.3525C27.1403 14.3968 28.5301 14.9732 30.007 14.9732ZM27.1755 6.60996C27.9323 5.85315 28.9368 5.43728 30.0055 5.43728C31.0742 5.43728 32.0772 5.85315 32.8355 6.60996C33.5939 7.36831 34.0113 8.37281 34.0113 9.44305C34.0113 10.5118 33.5939 11.5147 32.8355 12.2731C31.325 13.7837 28.6906 13.7852 27.177 12.2716C26.4202 11.5163 26.0028 10.5118 26.0028 9.44152C26.0043 8.37128 26.4202 7.36678 27.1755 6.60996Z" fill="white"/>
<path d="M39.9878 10.0649C39.9832 4.5149 35.4622 0 29.9107 0C29.7838 0 29.6584 0.0137602 29.5315 0.018347C26.9002 0.00305779 24.3729 1.03814 22.4541 2.94317L0.223605 25.189C-0.0745349 25.4871 -0.0745349 25.9718 0.223605 26.2699L13.3876 39.4324C13.5374 39.5822 13.7331 39.6556 13.9288 39.6556C14.1245 39.6556 14.3203 39.5807 14.4701 39.4324L19.8519 34.0506L19.8534 41.5163C19.8534 41.7197 19.9344 41.9138 20.0766 42.0575C20.2188 42.2013 20.4145 42.2808 20.6179 42.2808L39.2355 42.2716C39.6575 42.2716 40 41.9291 40 41.5071L39.9878 10.0649ZM13.9288 37.8117L1.84579 25.7302L20.2265 7.33882C19.9803 8.21795 19.8458 9.1353 19.8458 10.0741V12.1396L7.86515 24.3175C7.57007 24.6187 7.57312 25.1033 7.87432 25.3984C8.02263 25.5437 8.21527 25.6171 8.40944 25.6171C8.60668 25.6171 8.80543 25.5406 8.95374 25.3893L19.8458 14.3183V18.266L10.9016 27.3585C10.6065 27.6597 10.6096 28.1444 10.9108 28.4395C11.0606 28.5862 11.2532 28.6596 11.4474 28.6596C11.6446 28.6596 11.8434 28.5832 11.9917 28.4318L19.8473 20.4478L19.8488 31.8963L13.9288 37.8117ZM21.3808 40.7534L21.3732 10.0725C21.3716 7.78985 22.2584 5.64477 23.8714 4.03176C25.4844 2.41875 27.6295 1.52892 29.9137 1.52892C34.6213 1.52892 38.4543 5.35887 38.4588 10.0664L38.4695 40.7442L21.3808 40.7534Z" fill="white"/>
<path d="M35.93 19.3857H23.7338C23.3118 19.3857 22.9694 19.7282 22.9694 20.1502V38.323C22.9694 38.7449 23.3118 39.0874 23.7338 39.0874H35.93C36.352 39.0874 36.6945 38.7449 36.6945 38.323V20.1502C36.6945 19.7267 36.352 19.3857 35.93 19.3857ZM35.1656 37.557H24.4983V20.9147H35.1656V37.557Z" fill="white"/>
<path d="M27.6065 32.6331C27.7273 32.8624 27.9582 33.0153 28.2181 33.0367C28.2395 33.0383 28.2594 33.0398 28.2808 33.0398C28.5178 33.0398 28.7425 32.9297 28.8878 32.7401L33.5388 26.6611C33.7941 26.3263 33.7314 25.8462 33.395 25.5894C33.0602 25.334 32.5816 25.3967 32.3233 25.7331L28.397 30.8641L27.3436 28.8781C27.1448 28.505 26.6785 28.3613 26.31 28.5616C25.937 28.7588 25.7948 29.2221 25.9935 29.5951L27.6065 32.6331Z" fill="white"/>
</svg>
