<svg width="42" height="47" viewBox="0 0 42 47" fill="none" xmlns="http://www.w3.org/2000/svg">
<path d="M34.1414 6.988C29.9256 3.60745 24.6651 2.01035 19.2819 2.45101C18.6001 1.00846 17.14 0 15.4409 0C13.093 0 11.1824 1.90951 11.1824 4.25857C11.1824 6.60544 13.093 8.51714 15.4409 8.51714C17.6618 8.51714 19.4715 6.80056 19.6612 4.62688C24.4064 4.29036 29.0475 5.71427 32.7712 8.69911C40.8663 15.1905 42.1697 27.0554 35.6782 35.1494C35.3011 35.624 35.3768 36.3135 35.8492 36.6906C36.0509 36.8506 36.2921 36.9306 36.5343 36.9306C36.8555 36.9306 37.1723 36.7914 37.3904 36.5218C44.6371 27.4829 43.1803 14.2347 34.1414 6.988Z" fill="white"/>
<path d="M26.5603 38.2418C24.3384 38.2418 22.5286 39.9584 22.3379 42.1321C17.5915 42.4675 12.9537 41.0469 9.22895 38.0598C1.13383 31.5684 -0.1706 19.7014 6.32084 11.6085C6.69902 11.1349 6.62338 10.4454 6.15094 10.0673C5.6785 9.68908 4.98901 9.76362 4.60974 10.2361C-2.63695 19.2728 -1.18016 32.5231 7.85766 39.7698C11.6175 42.7843 16.2082 44.3901 20.9688 44.3901C21.5487 44.3901 22.1351 44.354 22.7172 44.3046C23.4001 45.7494 24.8602 46.7578 26.5603 46.7578C28.9094 46.7578 30.8189 44.8483 30.8189 42.4993C30.8189 40.1535 28.9072 38.2418 26.5603 38.2418Z" fill="white"/>
<path d="M11.3818 29.1671L11.3818 29.1665C11.3972 29.0291 11.4589 28.9009 11.5568 28.8032L18.8574 21.5026C18.2102 19.3791 18.6963 16.9855 20.3733 15.3085C22.793 12.8888 26.7316 12.8888 29.1513 15.3085C31.571 17.7283 31.571 21.6669 29.1513 24.0866C27.4766 25.7613 25.0839 26.2396 22.963 25.5967L20.6946 27.8651L20.6944 27.8653C20.5932 27.9659 20.4599 28.0278 20.3178 28.0402L20.3179 28.0401L20.309 27.9406L20.3176 28.0402L18.8436 28.1732L18.7105 29.6476L18.7105 29.6477C18.6976 29.7896 18.6354 29.9226 18.5346 30.0234C18.4338 30.1242 18.3008 30.1865 18.1588 30.1993L18.15 30.1014L18.1588 30.1993L16.6844 30.3324L16.5513 31.8068L16.5513 31.8069C16.5391 31.9407 16.483 32.0666 16.3917 32.1652C16.3005 32.2638 16.1792 32.3294 16.0468 32.3519L11.7455 33.0885L11.7452 33.0885C11.6524 33.1041 11.5573 33.098 11.4673 33.0707C11.3773 33.0434 11.2949 32.9956 11.2264 32.931C11.158 32.8665 11.1055 32.787 11.0729 32.6988L11.3818 29.1671ZM11.3818 29.1671L11.0388 32.4224M11.3818 29.1671L11.0388 32.4224M11.0388 32.4224C11.0388 32.4225 11.0388 32.4225 11.0388 32.4226L11.0388 32.4224ZM22.976 24.361L22.9747 24.3605C22.8658 24.3208 22.7478 24.313 22.6346 24.338C22.5214 24.363 22.4177 24.4199 22.3356 24.5018L22.3356 24.5019L19.994 26.8434L18.2252 27.0032L18.2342 27.1028L18.2252 27.0032C18.0832 27.0161 17.9502 27.0783 17.8494 27.1791C17.7486 27.2799 17.6864 27.4129 17.6735 27.5549L17.6735 27.5549L17.5405 29.0293L16.0661 29.1624L16.066 29.1624C15.9241 29.1752 15.7911 29.2375 15.6903 29.3383C15.5895 29.4391 15.5272 29.5721 15.5144 29.7141L15.5144 29.7143L15.3806 31.2287L12.3308 31.7502L12.561 29.5212L19.958 22.1243L19.9586 22.1237C20.0407 22.0404 20.097 21.9351 20.1209 21.8206C20.1447 21.7062 20.1351 21.5873 20.0932 21.4782C19.4169 19.6993 19.7973 17.6068 21.2344 16.1697L21.2432 16.1609C23.1965 14.217 26.3404 14.22 28.2902 16.1697C30.2428 18.1223 30.2428 21.2728 28.2902 23.2254C26.8533 24.6623 24.7552 25.0375 22.976 24.361ZM24.5116 16.9279C23.6819 17.7577 23.6819 19.1184 24.5116 19.9482C25.3414 20.778 26.7022 20.778 27.5319 19.9482C28.3617 19.1184 28.3617 17.7577 27.5319 16.9279C26.7022 16.0981 25.3414 16.0981 24.5116 16.9279ZM25.3728 17.789C25.7355 17.4264 26.3081 17.4264 26.6708 17.789C27.0335 18.1517 27.0335 18.7244 26.6708 19.0871C26.3081 19.4498 25.7355 19.4498 25.3728 19.0871C25.0101 18.7244 25.0101 18.1517 25.3728 17.789Z" fill="white" stroke="white" stroke-width="0.2"/>
</svg>
