<svg width="45" height="45" viewBox="0 0 45 45" fill="none" xmlns="http://www.w3.org/2000/svg">
<path d="M35.9787 23.7095C36.1499 23.3917 36.113 22.9927 35.845 22.7241L35.4102 22.2888C35.0824 21.9609 34.5514 21.9614 34.2235 22.2888C33.8956 22.6161 33.8956 23.1477 34.2235 23.4762L34.6583 23.9115C34.8222 24.0755 35.037 24.1572 35.2519 24.1572C35.3414 24.1572 35.4298 24.1342 35.516 24.1057L16.4331 43.1892C16.2473 43.375 15.9317 43.3649 15.7331 43.1663L13.0899 40.5229C14.9134 38.1145 14.7282 34.6586 12.5355 32.4656C10.341 30.2699 6.88487 30.0841 4.47783 31.9094L1.83522 29.2666C1.73395 29.1659 1.67856 29.0338 1.67856 28.8956C1.67856 28.7697 1.72611 28.6533 1.81172 28.5677L21.1576 9.2217C21.4855 8.89435 21.4855 8.36276 21.1576 8.03485C20.8298 7.70695 20.2988 7.70695 19.9709 8.03485L0.624982 27.3808C0.222129 27.7837 0 28.322 0 28.8962C0 29.4831 0.230521 30.0371 0.648482 30.4546L3.84333 33.6497C4.17121 33.9776 4.70163 33.9776 5.02951 33.6503C6.77297 31.9094 9.60693 31.9106 11.3482 33.6531C13.0883 35.3939 13.0894 38.2281 11.3504 39.9717C11.0231 40.2996 11.0236 40.8307 11.351 41.158L14.5475 44.3548C14.9789 44.7846 15.5429 45 16.1046 45C16.6552 45 17.2035 44.7924 17.6198 44.3766L36.964 25.0301C37.2919 24.7022 37.2919 24.1706 36.964 23.8432C36.696 23.5741 36.2965 23.5377 35.9787 23.7095ZM44.3508 14.5471L41.1559 11.3509C40.9987 11.1936 40.7855 11.1052 40.5623 11.1052C40.3402 11.1052 40.1264 11.1936 39.9686 11.3509C39.1243 12.1953 38.0014 12.6603 36.8079 12.6603C35.6145 12.6603 34.4921 12.1953 33.6489 11.3514C31.9071 9.60948 31.9065 6.77359 33.6478 5.03053C33.9751 4.70262 33.9751 4.17159 33.6472 3.84368L30.4523 0.647981C30.0422 0.237257 29.4984 0.0072744 28.9221 0C28.9126 0 28.9036 0 28.8935 0C28.32 0 27.7829 0.221589 27.3795 0.625598L21.2751 6.72994C20.9473 7.05729 20.9473 7.58888 21.2751 7.91679C21.603 8.24469 22.134 8.24469 22.4619 7.91679L28.5668 1.81189C28.6837 1.69438 28.8286 1.66864 28.9008 1.67871C29.0368 1.68039 29.1666 1.73578 29.2656 1.83483L31.9077 4.47767C30.0819 6.8855 30.2671 10.3431 32.4621 12.5383C33.6226 13.6994 35.1663 14.339 36.8085 14.339C38.1681 14.339 39.4595 13.9008 40.5231 13.0917L43.1646 15.7345C43.2642 15.8336 43.319 15.9628 43.3207 16.0988C43.3218 16.1732 43.3056 16.3154 43.1875 16.434L37.0832 22.5383C36.7553 22.8657 36.7553 23.3973 37.0832 23.7252C37.2471 23.8891 37.462 23.9708 37.6768 23.9708C37.8917 23.9708 38.1066 23.8891 38.2705 23.7252L44.3748 17.6208C44.785 17.2107 45.0071 16.6623 44.9998 16.0775C44.9914 15.5006 44.7609 14.9573 44.3508 14.5471ZM33.0754 21.9804C33.2902 21.9804 33.5056 21.8987 33.669 21.7348C33.9969 21.4069 33.9969 20.8753 33.669 20.5474L33.2337 20.112C32.9058 19.7847 32.3737 19.7847 32.047 20.112C31.7191 20.4399 31.7191 20.9715 32.047 21.2994L32.4823 21.7348C32.6462 21.8982 32.8611 21.9804 33.0754 21.9804ZM28.1298 17.3819C28.2937 17.5459 28.5086 17.6276 28.7234 17.6276C28.9383 17.6276 29.1532 17.5459 29.3171 17.3819C29.645 17.0546 29.645 16.523 29.3171 16.1945L28.8823 15.7591C28.5545 15.4312 28.0235 15.4318 27.6956 15.7591C27.3677 16.0865 27.3677 16.6181 27.6956 16.9466L28.1298 17.3819ZM30.9 19.8037C31.1148 19.8037 31.3302 19.722 31.4936 19.5581C31.8215 19.2302 31.8215 18.6986 31.4936 18.3707L31.0583 17.9353C30.7304 17.608 30.1983 17.608 29.8716 17.9353C29.5437 18.2632 29.5437 18.7948 29.8716 19.1227L30.3069 19.5581C30.4703 19.722 30.6851 19.8037 30.9 19.8037ZM24.3721 13.2747C24.5869 13.2747 24.8018 13.193 24.9657 13.029C25.2936 12.7017 25.2936 12.1701 24.9657 11.8416L24.531 11.4063C24.2031 11.0784 23.6721 11.0789 23.3442 11.4063C23.0163 11.7336 23.0163 12.2652 23.3442 12.5937L23.779 13.029C23.9424 13.193 24.1572 13.2747 24.3721 13.2747ZM26.5475 15.4514C26.7623 15.4514 26.9772 15.3697 27.1411 15.2057C27.469 14.8784 27.469 14.3468 27.1411 14.0183L26.7064 13.583C26.3785 13.2551 25.8475 13.2556 25.5196 13.583C25.1918 13.9103 25.1918 14.4419 25.5196 14.7704L25.9544 15.2057C26.1183 15.3691 26.3332 15.4514 26.5475 15.4514ZM22.3539 9.23009C22.026 8.90275 21.4939 8.90275 21.1671 9.23009C20.8393 9.558 20.8393 10.0896 21.1671 10.4175L21.6024 10.8528C21.7664 11.0162 21.9812 11.0985 22.1961 11.0985C22.4109 11.0985 22.6264 11.0168 22.7897 10.8528C23.1176 10.5249 23.1176 9.99335 22.7897 9.66544L22.3539 9.23009ZM13.3395 18.6454L12.8941 22.6346C12.4191 22.8467 12.0867 23.3217 12.0867 23.8751V30.2106C12.0867 30.9598 12.696 31.5698 13.4452 31.5698H14.9045C15.6542 31.5698 16.2641 30.9604 16.2641 30.2106V28.9303H23.9507V30.2117C23.9507 30.9604 24.5606 31.5698 25.3098 31.5698H26.7696C27.5182 31.5698 28.1276 30.9604 28.1276 30.2106V23.8757C28.1276 23.3228 27.7952 22.8478 27.3213 22.6351L26.8753 18.6454C26.8451 17.9224 26.2481 17.3438 25.5191 17.3438H14.6958C13.9667 17.3438 13.3697 17.9224 13.3395 18.6454ZM14.585 29.8911H13.7653V28.9303H14.5855L14.585 29.8911ZM26.449 29.8911H25.6293V28.9303H26.449V29.8911ZM26.449 27.2516H13.7653V24.1941H26.449V27.2516ZM25.2281 19.0226L25.6187 22.5154H14.5967L14.9861 19.0226H25.2281ZM25.0765 26.9942C25.7602 26.9942 26.3164 26.4385 26.3164 25.7553C26.3164 25.0721 25.7602 24.5159 25.0765 24.5159C24.3939 24.5159 23.8383 25.0721 23.8383 25.7553C23.8388 26.4385 24.3944 26.9942 25.0765 26.9942ZM15.1367 26.9942C15.8204 26.9942 16.3765 26.4385 16.3765 25.7553C16.3765 25.0721 15.8204 24.5159 15.1367 24.5159C14.4529 24.5159 13.8973 25.0721 13.8973 25.7553C13.8973 26.4385 14.4529 26.9942 15.1367 26.9942ZM18.0948 26.5633L22.1183 26.5628C22.5822 26.5628 22.9576 26.1867 22.9576 25.7234C22.9576 25.2595 22.5816 24.884 22.1183 24.884L18.0948 24.8846C17.631 24.8846 17.2555 25.2606 17.2555 25.724C17.2555 26.1873 17.6315 26.5633 18.0948 26.5633Z" fill="white"/>
</svg>
