<?xml version="1.0" standalone="no"?>
<!DOCTYPE svg PUBLIC "-//W3C//DTD SVG 20010904//EN"
 "http://www.w3.org/TR/2001/REC-SVG-20010904/DTD/svg10.dtd">
<svg version="1.0" xmlns="http://www.w3.org/2000/svg"
 width="512.000000pt" height="512.000000pt" viewBox="0 0 512.000000 512.000000"
 preserveAspectRatio="xMidYMid meet">
<metadata>
Created by potrace 1.11, written by Peter Selinger 2001-2013
</metadata>
<g transform="translate(0.000000,512.000000) scale(0.100000,-0.100000)"
fill="#000000" stroke="none">
<path d="M0 2560 l0 -2560 2560 0 2560 0 0 2560 0 2560 -2560 0 -2560 0 0
-2560z m1779 1145 c150 -29 352 -111 435 -178 l29 -23 -68 -95 c-37 -52 -69
-95 -70 -97 -1 -2 -32 15 -67 38 -140 87 -339 137 -513 127 -419 -24 -758
-317 -841 -728 -22 -111 -15 -313 15 -417 97 -336 369 -585 706 -649 99 -19
311 -13 400 12 100 27 254 107 337 173 211 171 338 435 338 706 0 160 49 365
121 508 91 181 230 338 397 448 188 125 359 179 590 187 165 6 252 -5 392 -49
412 -131 712 -476 786 -903 24 -134 15 -348 -20 -479 -98 -376 -384 -681 -754
-805 -454 -153 -980 7 -1268 385 l-26 33 27 45 c15 25 41 87 59 137 l33 91 40
-69 c129 -217 365 -378 620 -423 89 -16 305 -8 388 15 94 25 255 108 335 172
143 114 263 301 312 483 31 119 31 328 -1 445 -89 332 -341 578 -677 662 -104
26 -323 23 -429 -6 -315 -85 -558 -324 -646 -636 -12 -41 -26 -144 -34 -253
-15 -193 -37 -298 -86 -420 -120 -301 -386 -554 -691 -656 -245 -82 -486 -85
-729 -7 -349 112 -618 378 -734 723 -104 312 -77 633 76 918 136 251 378 455
647 544 165 55 405 72 571 41z"/>
</g>
</svg>
